<svg xmlns="http://www.w3.org/2000/svg" viewBox="0 0 819 819"><path fill="#f0f8f9" stroke="#f0f8f9" d="M385.971 1.006C246.08 9.747 123.329 86.139 53.549 207.881-52.034 392.088 3.579 629.897 180 748.602c69.971 47.079 144.783 69.848 229.5 69.848 96.399 0 182.582-30.346 257.832-90.784 86.211-69.243 143.759-178.959 150.293-286.537.374-6.16 1.061-11.435 1.527-11.723.467-.288.848-9.749.848-21.024 0-13.412-.346-20.286-1-19.882-.618.382-1.004-1.408-1.01-4.691-.011-6.388-2.372-27.729-4.503-40.704C792.269 213.886 708.914 101.432 591 42.948 528.026 11.714 454.689-3.289 385.971 1.006M299 17c0 .55 1.575 1 3.5 1s3.5-.45 3.5-1-1.575-1-3.5-1-3.5.45-3.5 1m199 0c0 .55 1.575 1 3.5 1s3.5-.45 3.5-1-1.575-1-3.5-1-3.5.45-3.5 1m-96 2c0 .55 1.8 1 4 1s4-.45 4-1-1.8-1-4-1-4 .45-4 1m40 0c0 .55 1.8 1 4 1s4-.45 4-1-1.8-1-4-1-4 .45-4 1m24 0c0 .55 1.8 1 4 1s4-.45 4-1-1.8-1-4-1-4 .45-4 1m16 0c0 .55 1.8 1 4 1s4-.45 4-1-1.8-1-4-1-4 .45-4 1M170 265.5c0 .765.936 1.044 2.5.745 1.375-.263 2.5-.598 2.5-.745 0-.147-1.125-.482-2.5-.745-1.564-.299-2.5-.02-2.5.745m-3.909 1.423c-.775.49-1.9.782-2.5.648-.6-.134-.735-.048-.299.19.435.238.317 1.005-.263 1.704-.756.911-.651 1.603.37 2.451.996.827 1.622.859 2.086.108.365-.591.293-.95-.161-.799-.453.151-.891-.175-.974-.725-.083-.55.268-.883.778-.741.51.143 1.187-.417 1.505-1.244.317-.827 1.049-1.212 1.626-.855.613.379.753.169.336-.505-.844-1.367-.728-1.357-2.504-.232M180.5 275c.34.55.816 1 1.059 1s.441-.45.441-1-.477-1-1.059-1-.781.45-.441 1m308.86-.335c.359.64.087 1.366-.604 1.613-.691.246-.911.817-.489 1.268.421.452 1.299.288 1.95-.363.911-.911.873-1.471-.164-2.433-.865-.803-1.113-.834-.693-.085m5.64-.272c0 .216.698.661 1.552.989.89.341 1.291.173.941-.393-.587-.951-2.493-1.406-2.493-.596m40.813.29c.721.289 1.584.253 1.916-.079.332-.332-.258-.568-1.312-.525-1.165.048-1.402.285-.604.604m24 1c.721.289 1.584.253 1.916-.079.332-.332-.258-.568-1.312-.525-1.165.048-1.402.285-.604.604m3.937-.021c.688.278 1.813.278 2.5 0 .688-.277.125-.504-1.25-.504s-1.937.227-1.25.504m10.258.312c-.82.518-2.62.7-4 .404-1.967-.424-2.185-.31-1.008.526 2.082 1.479 4.276 1.355 6.559-.372 2.129-1.611.845-2.073-1.551-.558m8.992-.581c0 .216.675.652 1.5.969.825.316 1.5.139 1.5-.393 0-.533-.675-.969-1.5-.969s-1.5.177-1.5.393m-90.609 1.783c-.489.791 12.375.391 13.176-.409.297-.297-2.452-.479-6.109-.404-3.657.075-6.837.441-7.067.813m88.609-.193c0 .559.702 1.017 1.559 1.017.936 0 1.27.468.836 1.17-.484.782-.182.962.912.542.901-.345 2.326.064 3.173.911.846.846 2.096 1.347 2.779 1.113.683-.233-1.121-1.627-4.009-3.097-2.888-1.47-5.25-2.215-5.25-1.656m-420.376 1.556c-.965 2.514-.681 3.163.498 1.136.584-1.004.851-2.036.593-2.293-.257-.258-.749.263-1.091 1.157M182 279.5c0 1.375.45 2.5 1 2.5s1-1.125 1-2.5-.45-2.5-1-2.5-1 1.125-1 2.5m395.507-1.511c-.35.566.051.734.941.393 1.732-.665 2.049-1.382.611-1.382-.518 0-1.216.445-1.552.989m-398.428 1.594c.048 1.165.285 1.402.604.605.289-.722.253-1.585-.079-1.917-.332-.332-.568.258-.525 1.312m303.955-.124c-1.874 2.258 3.572 3.364 5.765 1.171.959-.959 1.154-1.63.474-1.63-.635 0-1.433.45-1.773 1-1 1.619-3.507 1.181-2.862-.5.732-1.907-.039-1.927-1.604-.041m-23.524 4.557c.346.559 1.047.758 1.559.441 1.387-.857 1.129-1.457-.628-1.457-.857 0-1.276.457-.931 1.016m13.24-.31c1.238.238 3.262.238 4.5 0 1.238-.239.225-.434-2.25-.434s-3.488.195-2.25.434m129.25.353c0 .582-.45.781-1 .441s-1-.093-1 .548.675.907 1.5.59c.825-.316 1.5-.149 1.5.372 0 .548 1.04.473 2.469-.178 2.331-1.062 2.589-2.832.413-2.832-.55 0-.722.45-.382 1 .34.55-.11 1-1 1s-1.34-.45-1-1c.34-.55.141-1-.441-1s-1.059.477-1.059 1.059M183.71 286c.288 1.1.696 2 .907 2 .21 0 .383-.9.383-2s-.408-2-.906-2c-.499 0-.671.9-.384 2m281.541-1.02c.221.814-.532 2.262-1.674 3.217-1.142.955-1.57 1.751-.949 1.77.62.018 1.665-.615 2.323-1.408.657-.792 1.95-1.199 2.872-.905 1.31.417 1.377.321.309-.442-.752-.537-1.799-1.592-2.326-2.344-.786-1.122-.886-1.102-.555.112m2.562-.297c.721.289 1.584.253 1.916-.079.332-.332-.258-.568-1.312-.525-1.165.048-1.402.285-.604.604M157.158 288c0 1.375.227 1.938.504 1.25.278-.687.278-1.812 0-2.5-.277-.687-.504-.125-.504 1.25m449.007-1.123c-1.014.643-.834.976.75 1.391 1.383.361 2.085.071 2.085-.862 0-1.595-.891-1.761-2.835-.529M459 288.941c0 .518.45 1.219 1 1.559.55.34 1-.084 1-.941s-.45-1.559-1-1.559-1 .423-1 .941M610 289c0 .55.702 1 1.559 1s1.281-.45.941-1c-.34-.55-1.041-1-1.559-1s-.941.45-.941 1m-165.388 2.181c.497.804.129.935-1.198.43-1.452-.553-1.635-.449-.76.433.773.78 1.715.849 2.859.209 1.578-.884 1.582-1.003.045-1.593-1.109-.425-1.424-.252-.946.521m171.144-.517c.691.279 1.005.913.698 1.41-.307.497.178.621 1.078.275 1.722-.661.16-2.394-2.032-2.255-.55.035-.435.292.256.57m-431.937.844c-.375.378-.411 1.392-.08 2.254.429 1.117.222 1.332-.724.748-.914-.566-1.086-.435-.557.423 1.029 1.663 2.841-.172 2.386-2.416-.189-.933-.65-1.387-1.025-1.009m267.671.508c-.346.559-1.117.715-1.714.346-.63-.39-.799-.208-.403.433.376.608-.268 1.614-1.431 2.236-1.162.622-1.845 1.399-1.517 1.727.328.328 1.914-.667 3.526-2.211 1.831-1.755 3.534-2.575 4.541-2.188.937.359 1.356.204 1.001-.37-.796-1.288-3.201-1.271-4.003.027m171.26-.354c.688.278 1.813.278 2.5 0 .688-.277.125-.504-1.25-.504s-1.937.227-1.25.504m-177.292 2.406c-.363.588-1.402.786-2.309.441-1.259-.479-1.373-.35-.483.547.892.9 1.707.796 3.472-.44 1.269-.889 1.783-1.616 1.144-1.616-.64 0-1.461.481-1.824 1.068m178.108.039c.464.751-.079.897-1.691.452-1.762-.485-1.98-.403-.845.32.842.536 2.181 1.12 2.977 1.298.795.178 2.111.946 2.925 1.707 1.174 1.099 1.567 1.12 1.905.104.235-.704-.645-2.104-1.955-3.112-2.674-2.056-4.352-2.445-3.316-.769m-468.487 2.476c.048 1.165.285 1.402.604.605.289-.722.253-1.585-.079-1.917-.332-.332-.568.258-.525 1.312m29.415.427c-.343.555.305 2.191 1.441 3.635 1.136 1.443 2.065 2.141 2.065 1.549 0-.592-.498-1.384-1.107-1.76-.774-.478-.698-.976.25-1.653 1.01-.722.881-.815-.504-.364-1.38.449-1.712.214-1.282-.906.655-1.706.086-2.037-.863-.501m7.6 1.666c.447 2.572-.136 3.534-1.469 2.428-1.105-.918-1.375-.644-1.375 1.396 0 1.395.389 2.777.864 3.07.474.294.567-.238.205-1.182-.404-1.051-.262-1.471.365-1.083.563.348 1.522-.463 2.132-1.801.718-1.576.761-2.647.122-3.043-.543-.335-.923-.239-.844.215M388 298.58c-4.245 1.481-12.48 6.142-14.361 8.127-1.176 1.242-2.701 2.266-3.389 2.276-.687.009-1.25.467-1.25 1.017 0 1.701-1.836 1.101-2.296-.75-.239-.962-.292-.566-.118.882.409 3.397-.538 4.299-2.205 2.102-1.176-1.548-1.321-1.386-1.349 1.516-.018 1.788-.429 3.25-.915 3.25-.486 0-.743 2.032-.571 4.515.172 2.483-.055 4.288-.504 4.011-.448-.277-1.429.25-2.179 1.172-1.188 1.461-1.142 1.594.355 1.033.945-.354 1.946-.275 2.224.175.437.708-1.301.774-4.942.188-.55-.088.014-1.006 1.252-2.039 1.47-1.226 2.045-2.518 1.656-3.717-.496-1.527-.414-1.584.482-.338.667.927 1.085 1.045 1.095.309.028-2.172-1.692-2.29-3.545-.242-1.776 1.961-1.772 2.001.116 1.394 1.878-.603 1.881-.573.097.889-1.016.832-2.395 1.303-3.063 1.046-.669-.257-2.045.449-3.058 1.569-1.013 1.119-1.531 2.035-1.152 2.035.38 0 .209.9-.38 2s-1.574 2-2.19 2c-.616 0-.305-.9.69-2 .995-1.1 1.338-2 .762-2-1.021 0-2.502 2.491-2.676 4.5-.047.55-.648 1.056-1.336 1.125-.687.069-1.475.238-1.75.375-.275.137-.849.306-1.275.375-.806.13-2.843 1.724-6.547 5.125-1.198 1.1-2.44 1.912-2.761 1.806-.321-.107-.584.457-.584 1.254 0 1.233.252 1.221 1.69-.081 1.465-1.326 1.849-1.338 2.882-.093.834 1.004.869 1.635.119 2.099-.591.365-1.009.293-.93-.161.354-2.041-.214-2.347-1.663-.897-1.227 1.226-2.018 1.329-3.621.471-1.491-.798-1.866-.797-1.372.002.374.605.203 1.156-.379 1.225-.582.069-1.621.181-2.309.25-.687.069-1.25.65-1.25 1.292 0 .641-.337 1.504-.75 1.916-.413.413-.75.199-.75-.475 0-.674-.45-.948-1-.608-1.624 1.004-1.148 2.063 1 2.225 1.1.083 2-.255 2-.752 0-.496.859-1.363 1.91-1.925 2.001-1.071 2.482.983.625 2.673-.471.429-.489.147-.041-.626.584-1.006.445-1.175-.491-.597-1.033.638-.954 1.065.375 2.036 1.509 1.104 1.519 1.291.099 1.836-.869.334-1.338.214-1.041-.267.298-.481-.605-1.093-2.006-1.361-2.024-.387-2.429-.154-1.975 1.136.314.892-.322.497-1.414-.878-1.806-2.275-1.95-2.312-1.602-.417.244 1.331-.143 2.084-1.072 2.084-.799 0-1.238-.56-.976-1.244.263-.684-1.014-.271-2.836.917-1.822 1.188-3.119 2.492-2.882 2.899.237.406-.155.531-.871.278-1.291-.457-5.548 2.107-4.729 2.848 1.231 1.113 5.119 1.755 4.493.742-.376-.609-.207-1.107.375-1.107s1.059.679 1.059 1.51c0 1.183-.996 1.426-4.605 1.125-4.832-.402-11.395 1.082-11.395 2.577 0 .481-.562.803-1.25.713-2.388-.31-3.75.081-3.75 1.075 0 .55.702 1 1.559 1s1.284-.445.948-.989c-.359-.58.074-.725 1.051-.351 1.521.584 1.512.721-.11 1.629-1.212.678-2.362.621-3.648-.182-1.494-.933-2.191-.859-3.41.36-1.684 1.684-2.83 2.054-1.949.629.466-.755-5.647 1.177-11.441 3.615-.825.347-2.85.783-4.5.968-1.65.185-3.12.691-3.266 1.126-.146.434-1.833.607-3.75.383-1.916-.224-3.484.006-3.484.51 0 .518-6.694.892-15.404.859-8.473-.031-15.004.191-14.515.493.489.303-.672.55-2.581.55-1.909 0-2.968-.311-2.353-.691.615-.38-.854-1.135-3.265-1.678-2.41-.543-5.282-1.298-6.382-1.678-1.658-.573-1.621-.463.217.646 2.09 1.259 1.974 1.342-2 1.434-3.028.07-3.653-.126-2.217-.697l2-.795-2-.086c-1.696-.073-1.772-.25-.5-1.165 1.229-.884 1.153-.965-.42-.45-1.056.345-2.247.099-2.646-.546-.399-.646-2.99-1.198-5.758-1.226-4.273-.044-4.78-.242-3.355-1.31 1.488-1.115 1.424-1.194-.559-.695-1.474.371-2.437.044-2.822-.958-.764-1.991-5.946-4.109-8.063-3.296-1.293.496-1.416.343-.559-.69.871-1.049.534-1.316-1.605-1.273-2.056.041-2.707-.426-2.71-1.946-.002-1.429-.644-1.977-2.249-1.921-1.235.043-2.038-.128-1.785-.382 1.011-1.01-1.578-4.092-2.984-3.553-.934.358-1.485-.027-1.485-1.037a1.62 1.62 0 0 0-1.622-1.607c-1.239 0-1.361.315-.516 1.333.832 1.003.76 1.334-.288 1.334-1.314 0-1.4-2.522-.154-4.537.638-1.032-2.792-4.353-3.751-3.632-.368.276-.44.198-.16-.174s-.33-1.609-1.355-2.75-2.978-3.988-4.339-6.327c-1.362-2.339-2.777-3.952-3.145-3.583-.369.368-.67-.107-.67-1.056 0-1.115-.443-1.46-1.25-.975-.985.592-.994.435-.042-.743.67-.829.93-2.56.582-3.888-.58-2.219-.679-2.252-1.343-.448-.488 1.325-.704.669-.677-2.054.052-5.217-1.242-11.52-2.846-13.867-1.214-1.776-1.403-1.728-3.898 1-3.821 4.179-7.526 10.191-7.526 12.211 0 .966-.403 2.183-.895 2.706-2.89 3.069-4.221 21.334-2.155 29.561 3.269 13.012 13.448 26.114 26.3 33.85 3.162 1.904 5.75 3.816 5.75 4.25 0 .434 1.012.841 2.25.905 1.62.083 1.773.242.546.564-.937.247-3.412 1.321-5.5 2.387-3.549 1.813-3.601 1.901-.796 1.355 2.292-.446 2.646-.332 1.5.482-.825.586-1.05 1.058-.5 1.049 1.994-.033 4.699-2.714 3.303-3.273-.759-.304-.468-.561.697-.615 1.1-.051 3.125-.376 4.5-.724l2.5-.631-2.3 2.055c-1.433 1.281-1.897 2.304-1.233 2.714.586.363.866.982.623 1.376-.244.394.406.716 1.444.716 1.749 0 1.769-.131.272-1.785-1.005-1.111-1.173-1.786-.445-1.786 2.157 0 9.139 2.478 9.139 3.243 0 .417 1.318.757 2.929.757 1.61 0 3.717.788 4.681 1.75 1.287 1.284 3.235 1.718 7.322 1.629 3.817-.082 4.939.142 3.568.715-1.457.608-.642.85 3 .892 2.75.031 9.725.16 15.5.285 5.775.126 13.875-.142 18-.595 4.125-.453 9.848-.98 12.717-1.17 2.869-.191 5.794-.706 6.5-1.146.706-.439 2.253-.673 3.437-.52 1.185.153 2.45-.198 2.81-.781.359-.582 1.951-1.059 3.536-1.059s3.148-.43 3.473-.956c.325-.526 1.325-.675 2.223-.33 1.179.452 1.405.258.814-.699-.537-.868-.432-1.085.306-.629.619.383 2.466.002 4.105-.845 1.639-.848 4.015-1.548 5.279-1.556 1.904-.013 2.041-.2.8-1.087-1.21-.864-1.071-.978.713-.588 1.218.266 2.713-.118 3.323-.854.611-.735 1.758-1.089 2.55-.785.792.304 2.038.056 2.769-.55.731-.607 1.697-.77 2.146-.362.45.407.511-.11.135-1.15-.569-1.578-.438-1.689.789-.671 1.121.93 1.899.945 3.273.065 1.735-1.111 1.735-1.133 0-.59-1.1.344-1.552.16-1.161-.472.352-.57 1.388-.963 2.302-.874 3.067.301 4.283-.06 3.651-1.083-.346-.559-1.16-.712-1.809-.34-.65.372-.834.295-.411-.171 1.062-1.168 4.774-1.353 4.063-.203-.987 1.597 3.5-1.194 6.099-3.793 1.363-1.363 3.098-2.477 3.856-2.477s2.691-1.338 4.295-2.972c1.605-1.635 3.32-2.985 3.813-3 .493-.016-.318 1.097-1.801 2.472-3.472 3.217-2.678 3.18 2.111-.097 2.087-1.429 3.663-3.059 3.503-3.623-.16-.564.426-.75 1.302-.414 1.05.403 1.349.216.877-.547-.483-.781-.157-.944 1-.5 1.023.392 1.468.257 1.103-.334-.338-.546-1.662-.729-2.943-.408-1.281.322-2.561.211-2.843-.246-.282-.457 1.431-.84 3.808-.851 2.673-.013 4.089.369 3.712 1-.335.561.152.402 1.083-.352 1.709-1.387 2.42-3.696.836-2.717-.471.291-.799-.886-.729-2.615.074-1.843.738-3.31 1.606-3.546.886-.241 1.078-.071.479.424-.55.454-1.153 1.726-1.339 2.826-.293 1.724.12 1.586 2.996-1 2.608-2.345 2.843-2.438 1.08-.426-1.24 1.416-1.914 2.951-1.496 3.411.417.459.127.469-.646.021-1.006-.584-1.175-.445-.597.491.641 1.037 1.054.969 2.004-.33.657-.9 1.432-1.399 1.721-1.11.289.289 2.995-1.731 6.012-4.489 3.017-2.757 5.835-4.688 6.261-4.291.426.398.19-.402-.524-1.777-1.161-2.234-1.133-2.363.267-1.208 1.28 1.055 1.661 1.055 2.085 0 .396-.987.537-.96.597.111.054.951.704.683 2.017-.831 1.065-1.229 1.698-2.985 1.405-3.903-.318-.998-.192-1.254.313-.636 1.683 2.061 7.344-.518 7.344-3.345 0-3.026 5.684-8.425 7.734-7.346 1.971 1.038 10.809-4.9 9.481-6.37-.393-.435.058-.514 1.003-.175.945.339 2.027.116 2.404-.495.445-.72.226-.826-.622-.302-.866.535-1.068.418-.595-.345.392-.635 1.531-1.155 2.532-1.155 2.573 0 4.342-2.321 2.882-3.781-1.947-1.947.89-4.244 4.646-3.763 2.69.344 3.629-.092 5.424-2.52 1.194-1.615 2.657-2.936 3.252-2.936.594 0 .018.951-1.28 2.113l-2.361 2.113 2.5-1.533c1.375-.843 2.369-2.074 2.209-2.735-.163-.675.327-.966 1.117-.663 1.1.422 1.335-.369 1.077-3.628-.879-11.068-3.892-14.014-14.704-14.372-3.959-.131-7.874-.003-8.699.285m38.543.351c-.317.512-.049 1.256.595 1.654.767.474.902.289.391-.538-.58-.939-.172-1.089 1.596-.589 1.831.519 2.032.433.875-.377-1.866-1.306-2.72-1.343-3.457-.15m6.27-.248c.721.289 1.584.253 1.916-.079.332-.332-.258-.568-1.312-.525-1.165.048-1.402.285-.604.604m5.187.348c0 .533.675.969 1.5.969s1.5-.177 1.5-.393c0-.216-.675-.652-1.5-.969-.825-.316-1.5-.139-1.5.393m192.851 1.22c.452.452 2.071 1.049 3.597 1.325 2.325.422 2.554.287 1.413-.834-.748-.735-2.367-1.332-3.597-1.325-1.229.006-1.865.382-1.413.834m-477.295 3.305c-.377 2.006-.485 3.848-.241 4.093.245.244.753-1.198 1.129-3.205.377-2.006.485-3.848.241-4.093-.245-.244-.753 1.198-1.129 3.205m279.777-1.872c0 1.011.338 1.028 1.584.083.871-.661 1.746-1.304 1.946-1.43.2-.127-.513-.164-1.583-.083-1.071.081-1.947.724-1.947 1.43m205.36.26c-2.282 1.461-2.506 1.914-1.198 2.416 1.036.397 1.363.219.918-.501-.42-.68-.146-.92.698-.614.764.278 1.291.968 1.171 1.534-.371 1.75 2.102 3.021 4.218 2.168 1.755-.708 1.667-.815-.719-.877-1.99-.051-2.564-.472-2.143-1.57.32-.832.029-1.5-.653-1.5-.966 0-.963-.322.015-1.5 1.556-1.875 1.21-1.808-2.307.444M428 303c-.825.533-1.05.969-.5.969s1.675-.436 2.5-.969c.825-.533 1.05-.969.5-.969s-1.675.436-2.5.969m1.507 1.989c-.35.566.051.734.941.393 1.732-.665 2.049-1.382.611-1.382-.518 0-1.216.445-1.552.989m-237.836 1.425c-.321.837-.084 1.831.527 2.208.713.441.827.227.317-.597-.532-.862-.336-1.118.596-.78.764.278 1.276 1.011 1.139 1.63s.088 1.072.5 1.007c2.244-.355 3.402.279 2.901 1.586-.663 1.728.918 3.038 1.849 1.532.351-.568.964-.831 1.362-.586.397.246.788-.413.867-1.464.079-1.051-.272-2.168-.781-2.482-.509-.315-.675.081-.368.879.306.798.076 1.748-.512 2.111-1.057.653-1.455-.551-1.145-3.458.141-1.315.038-1.318-.829-.026-.841 1.254-1.351 1.134-3.414-.804-2.021-1.899-2.522-2.025-3.009-.756m154.681.346c.363.588.095 1.297-.596 1.576-.899.362-.917.529-.065.585 1.721.114 2.548-1.656 1.171-2.506-.698-.432-.904-.292-.51.345m16.648.299c0 .582.45.781 1 .441s1-.816 1-1.059-.45-.441-1-.441-1 .477-1 1.059m283.223.464c-2.121 1.107-2.159 1.283-.558 2.582.946.768 1.4.864 1.011.214-.39-.649-.251-1.463.308-1.809.905-.559 1.443.711 1.146 2.704-.058.393.575.453 1.408.133 1.243-.477 1.285-.855.238-2.117-.702-.846-1.126-1.731-.943-1.967.757-.976-.476-.853-2.61.26m-222.716.466c-.35.566.051.734.941.393 1.732-.665 2.049-1.382.611-1.382-.518 0-1.216.445-1.552.989m121.481.121c-3.032.417-6.774 1.238-8.315 1.824-1.542.586-4.588 1.066-6.77 1.066-2.182 0-5.576.672-7.541 1.493-1.966.822-3.895 1.295-4.287 1.053-2.009-1.241-20.549 5.877-19.544 7.504.778 1.259-.859 1.222-2.13-.049-.665-.665-2.731-.267-6.183 1.191l-5.184 2.19 2.733 1.803c3.306 2.179 2.533 2.371-1.378.342-2.501-1.298-2.938-1.298-3.664 0-.453.81-1.365 1.466-2.025 1.458-.734-.01-.618-.392.3-.985.825-.533 1.05-.969.5-.969-2.604 0-3.75 1.729-1.87 2.822 2.39 1.389.877 1.489-1.696.112-1.333-.714-1.934-.714-1.934 0 0 .569-.337.982-.75.917-2.039-.322-3.299.229-2.709 1.185.363.587.052.983-.691.881-3.659-.502-4.184.175-1.505 1.941 3.238 2.135 2.082 3.686-1.986 2.665-1.904-.478-2.335-.316-1.751.656.53.882.216.835-.992-.146-1.432-1.163-1.921-1.189-2.571-.137-.442.715-.97.885-1.174.379-.204-.506-2.171.146-4.371 1.449-2.2 1.304-3.083 2.117-1.963 1.808 1.54-.425 2.075-.067 2.19 1.467.084 1.117-.382 1.922-1.037 1.79-.654-.132-2.251.346-3.547 1.063-1.779.982-2.638 1.019-3.5.15-.861-.867-.649-.99.857-.498 1.485.485 1.643.399.614-.334-.996-.709-2.465-.243-5.212 1.656-4.75 3.281-4.82 3.851-.433 3.506 1.907-.151 3.677.064 3.932.477.593.96-6.51.831-8.09-.147-.653-.404-1.553-.162-2 .538-.446.7-2.046 1.908-3.554 2.686-2.774 1.43-6.09 5.587-6.09 7.636 0 .612-.576 1.114-1.28 1.114-.954 0-1.021-.53-.266-2.084.785-1.613.552-1.519-1.032.417-1.124 1.375-2.055 2.093-2.067 1.595-.037-1.522-3.788 2.401-4.349 4.549-.392 1.498-.141 1.866.982 1.435.83-.318 1.752-.579 2.049-.579.298 0-.028-.685-.723-1.523-1.069-1.288-.984-1.415.551-.826 1.477.566 1.68.343 1.089-1.197-.4-1.041-.372-1.538.062-1.105 1.335 1.336 1.173 6.769-.218 7.303-2.178.836-5.455-1.481-4.833-3.417.324-1.011.204-1.318-.288-.735-.464.55-2.828 2.751-5.253 4.891-3.168 2.796-4.477 4.754-4.65 6.96-.251 3.187-3.412 6.573-6.302 6.749-.946.057-.583.433.861.889 2.164.684 1.995.783-1.25.738-2.744-.037-3.746-.477-3.735-1.639.014-1.39.136-1.401.985-.088.852 1.319 1.402.771 1.153-1.147-.047-.357.687-.47 1.631-.253 2.158.496 4.716-1.451 5.611-4.27 1.016-3.199-.776-3.617-3.424-.799-1.276 1.358-1.953 2.469-1.506 2.469.448 0 1.451-.788 2.23-1.75 1.277-1.579 1.309-1.531.325.5-.6 1.238-1.412 2.284-1.805 2.327-4.211.45-7.601 2.489-6.663 4.007.291.472-.614 1.144-2.011 1.495-1.398.351-2.541 1.291-2.541 2.088 0 .842-.484 1.152-1.155.738-.687-.426-.884-.277-.485.368.368.596-.231 1.369-1.332 1.718-2.115.671-8.028 6.136-8.028 7.419 0 .416.632.757 1.405.757.772 0 1.174-.6.893-1.334-.282-.733-.014-1.333.595-1.333s1.107.69 1.107 1.532c0 1.817-3.628 3.376-6.629 2.847-2.209-.388-5.184 2.141-3.959 3.366.383.383 1.053.121 1.488-.584.502-.811.824-.153.88 1.797.048 1.709-.335 2.817-.863 2.491-.522-.323-.648-1.076-.279-1.673.414-.669.202-.795-.552-.329-.672.415-1.018 1.288-.768 1.94.25.651-.377 1.184-1.393 1.184-1.719 0-1.733-.125-.21-1.809 3.099-3.424-.045-3.796-3.84-.454-1.994 1.756-7.281 5.956-11.75 9.335-5.586 4.223-7.66 6.321-6.637 6.714.818.314 1.381.081 1.25-.518s.387-1.316 1.151-1.594c.909-.33 1.125-.077.625.732-.549.888-.198 1.058 1.242.6 1.917-.608 4.081 1.92 2.768 3.233-.288.288-.524-.002-.524-.643 0-.642-1.125-1.167-2.5-1.167s-2.5.45-2.5 1-.477 1-1.059 1-.81-.402-.507-.894c.304-.491-.526-.829-1.845-.75-1.318.079-2.218.434-1.999.789.388.628-1.876 1.901-4.287 2.41-.658.139-4.153 2.196-7.765 4.571-5.897 3.877-6.348 4.4-4.408 5.118 1.188.439 1.932 1.027 1.654 1.305-.279.279-1.767.028-3.308-.558-2.063-.784-3.088-.753-3.889.119-.788.858-.772 1.007.058.542.63-.352 1.396.013 1.702.811.448 1.166.076 1.268-1.895.519-1.564-.595-2.452-.579-2.452.043 0 .536-.697.975-1.55.975-3.023 0-7.87 3.12-6.346 4.086.768.486.923.89.346.899-.578.008-1.489-.424-2.025-.96-.633-.633-1.388-.314-2.153.911-.954 1.527-.88 2 .386 2.486 1.048.402 1.393.153 1.045-.755-.564-1.469 3.888-1.138 4.813.359.268.433-.484.534-1.671.223-1.321-.345-1.915-.172-1.532.448.39.632-1.239.996-4.344.971-2.733-.022-4.969-.377-4.969-.788 0-.411 1.113-.546 2.474-.299 1.896.344 2.339.096 1.896-1.06-.323-.841-1.087-1.187-1.725-.781-.63.401-1.37.762-1.645.801-.275.04-2.823.926-5.663 1.969-4.475 1.645-4.941 2.06-3.5 3.119 1.483 1.089 1.349 1.342-1.238 2.329-1.596.609-3.396.903-4 .654-.605-.25-.387-.49.484-.533.871-.043 1.584-.754 1.584-1.579 0-1.82.288-1.823-3.444.039-1.697.846-4.353 1.712-5.904 1.925-1.55.213-5.519 1.055-8.819 1.873-3.3.817-7.327 1.781-8.948 2.143-3.416.762-1.844 2.422 2.448 2.584 1.375.051 1.913.329 1.196.616-2.111.846-8.328-.658-7.599-1.838.76-1.229-2.613-.343-6.797 1.785-1.486.755-3.511 1.328-4.5 1.273-1.298-.072-1.102-.343.7-.974 1.72-.601.627-.719-3.5-.378-3.3.273-9.713.455-14.25.406-5.241-.058-8.25.299-8.25.978 0 .587-1.012 1.061-2.25 1.053-1.828-.013-1.969-.201-.75-1.003 1.03-.677-1.085-.875-6.75-.632-4.538.195-8.25-.052-8.25-.55 0-.498-2.588-.884-5.75-.858-7.899.064-9.665-.116-10.279-1.045-.292-.441-2.092-1.041-4-1.334-7.617-1.169-10.523-1.856-11.652-2.754-.649-.516-2.546-.978-4.215-1.025-1.669-.048-2.841-.401-2.603-.786s-1.465-1.298-3.784-2.029c-2.319-.731-4.789-1.761-5.488-2.289-3.617-2.731-6.005-1.644-5.867 2.671.073 2.282.644 4.599 1.27 5.149.625.55 1.368 2.125 1.652 3.5.284 1.375 1.267 5.2 2.183 8.5.917 3.3 1.516 7.653 1.331 9.673-.185 2.02-.103 3.654.183 3.632 2.138-.171 4.058.323 3.674.945-.255.413.635.816 1.977.896 1.914.115 2.205-.138 1.347-1.171-.858-1.034-.656-1.203.94-.786 1.651.432 1.842.889 1.014 2.436-.56 1.047-.662 1.802-.226 1.677.436-.125 1.834.35 3.107 1.055 1.891 1.047 2.611 1.041 3.937-.038 1.389-1.128 1.534-1.08 1.005.332-.745 1.993 2.157 3.037 4.616 1.66 1.17-.654 2.462-.36 4.392 1 1.505 1.06 3.861 2.24 5.236 2.623 1.906.531 2.144.447 1-.353-1.309-.917-1.291-1.052.143-1.066.904-.008 1.922.711 2.262 1.598.393 1.024 1.346 1.424 2.607 1.094 1.093-.286 1.988-.064 1.988.494 0 .557.732.732 1.627.389.894-.344 2.132-.221 2.75.272 2.877 2.298 43.841 4.212 45.141 2.109.321-.519 1.643-.48 3.149.093 1.429.543 3.348.749 4.266.457.919-.291 4.347-.758 7.618-1.037 8.945-.764 13.403-1.567 16.97-3.057 1.774-.741 3.473-1.099 3.777-.796.861.861 4.796-.67 4.2-1.634-.292-.472-.062-1.148.51-1.502.573-.354.918-.273.767.181-.657 1.97 4.633 1.774 6.654-.247 1.179-1.18 1.575-1.242 1.586-.25.013 1.053.193 1.041.889-.057.48-.758 1.326-1.098 1.881-.755.555.343 2.517-.032 4.362-.833 1.844-.801 2.903-1.519 2.353-1.597-1.057-.15 4.527-1.787 8.126-2.382 3.917-.648 6.336-2.48 5.702-4.32-.506-1.469-.37-1.444.882.163 1.377 1.767 1.681 1.79 4.385.339 1.598-.858 4.367-2.104 6.155-2.77 1.788-.665 3.25-1.632 3.25-2.147 0-.516.45-.66 1-.32s1 .179 1-.358c0-.536-.337-1.164-.75-1.395-.413-.23-.184-.281.509-.111.692.169 2.492-.202 4-.826 1.507-.623 3.134-1.042 3.614-.931.48.112.582-.554.227-1.48-.566-1.475-.435-1.511 1.069-.29 1.44 1.168 1.582 1.17.884.011-.577-.957-.406-1.229.558-.887 1.348.478 6.889-1.769 6.889-2.794 0-.28-1.012.012-2.25.648-1.827.94-2.022.916-1.035-.129.667-.708 2.047-1.348 3.066-1.423 1.018-.075 3.396-1.237 5.285-2.582 1.889-1.345 3.648-2.301 3.909-2.124.261.177.636-.163.833-.754.428-1.282-1.02-1.421-2.358-.226-.523.466-2.075.511-3.45.099-2.458-.736-2.461-.75-.191-.848 1.541-.067 2.074-.516 1.603-1.35-.552-.978-.423-.988.594-.047.908.84 1.863.903 3.161.207 1.024-.547 1.802-.639 1.729-.203-.459 2.74.29 2.465 5.092-1.874 1.015-.916 2.097-1.414 2.405-1.107.308.308.861-.225 1.229-1.184.398-1.036.103-2.102-.726-2.628-2.433-1.54-3.27-.985-1.487.986 1.629 1.8 1.624 1.891-.095 1.75-1.137-.094-1.69.41-1.481 1.35.184.825-.025 1.141-.464.702-2.953-2.953.036-7.626 3.643-5.696 1.265.677 2.076.661 2.516-.052.451-.729 1.055-.715 1.972.046.914.759 1.522.774 1.97.049.356-.577.284-1.067-.161-1.089-.445-.022.541-.791 2.191-1.709 1.65-.919 3.225-1.628 3.5-1.577.275.052 1.4-.823 2.5-1.944 1.1-1.12 1.368-1.674.595-1.229-.972.56-1.172.432-.648-.415.415-.672 1.352-.993 2.081-.714 1.531.588 3.805-1.706 2.744-2.767-.391-.391-.028-.449.806-.128.915.351 2.492-.51 3.97-2.167 1.349-1.512 1.664-2.145.702-1.407-1.035.794-1.75.913-1.75.293 0-.577-.788-1.25-1.75-1.496-.962-.245-.4-.484 1.25-.529 5.81-.161 6.627-.551 12.053-5.765 3.011-2.893 5.155-4.73 4.765-4.083-.681 1.13 3.23-2.118 8.845-7.344 1.465-1.364 5.182-4.488 8.262-6.944 5.056-4.033 6.762-6.979 3.626-6.26-.66.151-.897-.216-.526-.815.451-.731 1.315-.51 2.617.669 1.861 1.684 1.914 1.679 1.231-.099-.506-1.319-.361-1.641.501-1.108 1.408.87 4.366-1.225 3.563-2.524-.297-.481.085-.635.851-.341.765.294 2.026-.248 2.802-1.203.887-1.093.95-1.462.171-.994-.877.527-1.041.218-.562-1.058.616-1.644.506-1.671-1.262-.302s-1.824 1.356-.643-.155c1.335-1.708 3.562-1.88 4.927-.38.429.471.147.489-.626.041-.973-.565-1.173-.44-.65.405.849 1.374 4.567-1.341 4.54-3.316-.009-.602-.452-.42-.985.405-.533.825-.976 1.038-.985.473-.03-2.051 5.832-7.469 7.422-6.859.86.33 1.563.825 1.563 1.1 0 .275-.662.246-1.471-.065-1.794-.688-4.806 2.094-3.884 3.586.422.682.186.779-.645.265-.93-.575-1.07-.422-.482.529.643 1.04 1.149.852 2.276-.846.798-1.201 1.958-2.185 2.578-2.188 2.553-.011 7.176-4.797 5.895-6.104-.679-.692-1.566-.926-1.971-.52-.406.406-.076 1.193.733 1.749 1.097.754.836.851-1.029.38-1.714-.433-2.073-.335-1.143.309.948.658 1.023 1.147.25 1.625-.609.376-1.145.32-1.19-.125-.046-.445-.194-1.801-.33-3.013-.135-1.212.087-1.998.493-1.746.407.251 1.508.162 2.447-.199 1.494-.573 1.411-.833-.66-2.072-2.211-1.324-1.064-1.164 2.797.391 1.064.428 1.423.28.995-.412-.878-1.422 2.01-.989 3.528.529.888.888.641 1.065-1.037.742-1.212-.234-1.943-.003-1.625.512.319.516-.229.683-1.223.372-1.639-.513-1.633-.456.067.628 1.449.924 2.036.921 2.612-.01.408-.661.917-1.078 1.131-.928.947.669 10.737-5.813 14.138-9.359 2.063-2.152 3.75-3.514 3.75-3.028 0 .486-.54 1.424-1.2 2.084-2.564 2.564.326 1.03 3.861-2.05 2.052-1.788 3.368-2.65 2.925-1.917-.596.986-.014.922 2.241-.243 1.675-.867 3.331-2.036 3.679-2.599.348-.563 1.121-.722 1.718-.353.697.431.793.198.266-.653-.582-.942-.371-1.153.731-.73.852.327 2.578-.126 3.836-1.007 2.185-1.531 2.201-1.635.364-2.359-1.559-.615-1.416-.73.757-.611 1.473.08 2.459.501 2.191.934-1.224 1.98 4.215-.735 6.435-3.212.739-.825 1.059-.937.711-.25-.754 1.488-.108 1.581 2.249.323 2.924-1.561 5.669-2.4 7.086-2.164.832.139 1.061-.244.596-.997-.486-.785-.338-.963.412-.499.643.396 3.525-.149 6.405-1.212 2.88-1.063 6.937-2.241 9.015-2.617 2.078-.377 3.539-1.07 3.248-1.541-.291-.471.329-.632 1.378-.358 3.018.789 16.134-1.58 17.763-3.209.812-.812 2.231-1.447 3.154-1.413 1.112.042.834.419-.821 1.114-1.375.578-1.962 1.254-1.305 1.502s2.128-.049 3.27-.66 2.567-.808 3.167-.437c.601.371 1.484.054 1.964-.704.624-.984.878-1.023.889-.137.011.923 3.146 1.22 12.265 1.16 6.737-.044 14.441.229 17.12.608 3.433.485 4.669.364 4.191-.411-.374-.604-.24-1.098.297-1.098.536 0 1.143.502 1.347 1.116.334 1.002 7.156 2.629 13.795 3.29 1.375.137 3.483.776 4.684 1.421 2.804 1.506 5.473 1.485 2.816-.022-1.1-.624-2.225-1.398-2.5-1.72-.692-.81-2.711-1.261-8.25-1.841-6.759-.709-5.885-1.867 2.5-3.313 3.987-.687 7.723-1.609 8.301-2.048.578-.438 4.065-1.369 7.75-2.068 3.684-.699 6.699-1.63 6.699-2.068 0-.438 1.013-1.255 2.25-1.815 5.615-2.541 6.737-3.542 5.472-4.883-.996-1.054-.805-1.079 1.028-.136 1.237.636 2.25 1.592 2.25 2.122 0 .531.563.951 1.25.933.688-.017.007-1.126-1.513-2.463-2.512-2.211-6.486-2.526-5.179-.412.3.486-.166.611-1.035.277-1.402-.537-1.379-.758.198-1.939 1.649-1.234 1.623-1.292-.358-.794-1.176.295-2.436.053-2.802-.538-.417-.676.006-.873 1.137-.532.991.3-.351-.622-2.983-2.048-2.632-1.426-5.289-2.282-5.905-1.902-.732.453-.836.234-.3-.632.591-.957.365-1.151-.814-.699-.898.345-1.872.239-2.165-.236-.293-.474-1.545-.64-2.782-.369-1.807.396-1.954.282-.749-.579 1.304-.931 1.279-1.073-.191-1.087-.93-.008-1.969.435-2.309.985-.34.55-1.154.993-1.809.985-.716-.01-.592-.403.309-.985 1.09-.704 1.142-.974.191-.985-.763-.009-1.009-.537-.59-1.265.396-.687.365-.93-.067-.54-.433.391-2.094.035-3.69-.791-1.597-.825-3.308-1.25-3.804-.944-.496.307-1.184.1-1.53-.459-.345-.559-1.861-1.016-3.369-1.016-1.508 0-3.176-.435-3.708-.967-.884-.884-6.272-1.864-13.933-2.535-1.65-.144-3.337-.372-3.75-.505-3.612-1.17-23.253-2.15-21.75-1.086.923.654 1.042 1.068.309 1.078-.655.008-1.441-.389-1.746-.884-.662-1.07-16.773-1.065-24.575.009m-202.547 1.335c1.068.855 2.38 1.555 2.917 1.555 1.27 0 .703-.462-2.358-1.92-2.357-1.122-2.389-1.102-.559.365m200.372.238c.721.289 1.584.253 1.916-.079.332-.332-.258-.568-1.312-.525-1.165.048-1.402.285-.604.604m22 0c.721.289 1.584.253 1.916-.079.332-.332-.258-.568-1.312-.525-1.165.048-1.402.285-.604.604M415.405 312.5c-1.483 1.375-2.251 2.5-1.706 2.5.545 0 1.796-.889 2.78-1.976.983-1.087 2.248-1.693 2.809-1.346.585.362.716.138.307-.523-.964-1.562-1.1-1.518-4.19 1.345m121.738-1.61c-.746.473-.971 1.094-.5 1.38.471.286 1.437-.108 2.146-.875 1.429-1.546.464-1.842-1.646-.505m13.011-.006c-.987.625-.511 1.145 1.784 1.944 1.812.632 2.881.687 2.537.132-.326-.528-1.354-1.013-2.284-1.078-.93-.065-.341-.462 1.309-.882 2.768-.704 2.806-.771.5-.866-1.375-.057-3.106.281-3.846.75m21.096-.195c.962.252 2.538.252 3.5 0 .962-.251.175-.457-1.75-.457s-2.712.206-1.75.457M340 312c-.825.533-1.05.969-.5.969s1.675-.436 2.5-.969c.825-.533 1.05-.969.5-.969s-1.675.436-2.5.969m-4 1c-.793.49-1.217 1.116-.942 1.391.275.275 1.149.099 1.942-.391.793-.49 1.217-1.116.942-1.391-.275-.275-1.149-.099-1.942.391m222.75-.338c.688.278 1.813.278 2.5 0 .688-.277.125-.504-1.25-.504s-1.937.227-1.25.504m17.25-.269c0 .216.698.661 1.552.989.89.341 1.291.173.941-.393-.587-.951-2.493-1.406-2.493-.596m76 .5c0 .491.652 1.143 1.449 1.449.969.372 1.265.076.893-.893-.607-1.582-2.342-1.994-2.342-.556m-118.187.79c.721.289 1.584.253 1.916-.079.332-.332-.258-.568-1.312-.525-1.165.048-1.402.285-.604.604m-332.284 1.27c-.634 1.025 3.779 4.328 6.271 4.694.825.121 1.875.812 2.335 1.537.587.925.839.96.85.116.008-.66-.7-1.601-1.575-2.09-.874-.489-1.549-1.299-1.5-1.8.05-.5-.248-.926-.66-.945-.412-.02-1.735-.584-2.939-1.253-1.346-.748-2.418-.848-2.782-.259m4.471-.57c0 .211.901.619 2.001.907 1.101.288 1.75.115 1.441-.383-.538-.871-3.442-1.313-3.442-.524m116.768.785c.582.582 1.647.86 2.369.62.749-.25.295-.703-1.057-1.057-1.663-.435-2.054-.305-1.312.437M331 315c0 .55.477 1 1.059 1s.781-.45.441-1-.816-1-1.059-1-.441.45-.441 1m71.965.542c-1.041 1.255-1.037 1.768.024 2.75 1.027.951 1.148.932.572-.086-.403-.711-.189-1.949.475-2.75.665-.801.984-1.456.709-1.456s-1.076.694-1.78 1.542m3.476.013c-1.864 1.494-1.852 1.512.309.465 1.238-.6 2.25-1.3 2.25-1.555 0-.765-.519-.544-2.559 1.09M657.882 315c-.066.275-.047.893.04 1.373.088.48-.646.565-1.631.19-1.384-.526-1.522-.41-.607.512 1.692 1.705 8.004 2.006 9.301.443.828-.998.662-1.273-.7-1.163-.982.08-1.71-.305-1.618-.855.164-.983-4.554-1.476-4.785-.5M202 315.35c0 1.175 4.96 3.523 5.522 2.614.345-.557.256-.907-.198-.776-.453.13-1.836-.325-3.074-1.011-1.238-.686-2.25-1.058-2.25-.827m114.5.65c-.34.55.11 1 1 1s1.34-.45 1-1c-.34-.55-.79-1-1-1-.21 0-.66.45-1 1m302.5 0c-.793.49-1.217 1.116-.942 1.391.275.275 1.149.099 1.942-.391.793-.49 1.217-1.116.942-1.391-.275-.275-1.149-.099-1.942.391m39.333.521c0 .686 1.007 1.186 2.238 1.113 2.556-.153 2.347-1.161-.389-1.876-1.068-.279-1.849.043-1.849.763M326 317c-.825.533-1.05.969-.5.969s1.675-.436 2.5-.969c.825-.533 1.05-.969.5-.969s-1.675.436-2.5.969m187-.24c0 .601-.788 1.299-1.75 1.551-1.578.412-1.584.468-.059.573 1.804.124 3.408-1.618 2.409-2.617-.33-.33-.6-.108-.6.493m-196 1.156-3.5.653 2.997.624c1.689.352 3.278.172 3.639-.412.352-.571 1.21-.685 1.907-.255.824.51 1.017.38.552-.371-.392-.635-1.024-1.096-1.404-1.023-.38.072-2.266.425-4.191.784m186 .736c-2.333 1.05-3.017 1.754-2.05 2.111.798.295 1.622.02 1.833-.613.211-.633 1.134-1.114 2.05-1.071 1.04.049 1.197.269.417.583-1.712.691-1.577 2.005.206 2.005.801 0 1.224-.375.941-.834-.704-1.139.338-1.045 2.754.248 1.111.595 2.28.822 2.597.505.317-.318-.936-1.104-2.785-1.749-2.934-1.023-3.113-1.268-1.412-1.934 1.258-.492 1.417-.773.449-.794-.825-.017-3.075.678-5 1.543m115.75 1.01c.688.278 1.813.278 2.5 0 .688-.277.125-.504-1.25-.504s-1.937.227-1.25.504m41.25.731c0 .216.698.661 1.552.989.89.341 1.291.173.941-.393-.587-.951-2.493-1.406-2.493-.596m-349.25 1.269c.688.278 1.813.278 2.5 0 .688-.277.125-.504-1.25-.504s-1.937.227-1.25.504m-96.177 1.22c-.217.351 2.146.779 5.253.949 3.106.17 5.429.113 5.161-.128-.853-.765-10.002-1.487-10.414-.821m87.24-.199c.721.289 1.584.253 1.916-.079.332-.332-.258-.568-1.312-.525-1.165.048-1.402.285-.604.604m365.812.115c-.271.439-.093 1.445.397 2.237.671 1.086.848.889.721-.798-.183-2.427-.364-2.66-1.118-1.439m3.117-.115c.933.359.97.986.15 2.518-.79 1.477-.789 1.853.003 1.364 2.559-1.582 3.029-4.147.779-4.256-1.196-.058-1.615.11-.932.374m-373.283 1.384c-1.026 1.66-.105 1.89 1.33.332.71-.769.849-1.399.309-1.399-.539 0-1.277.48-1.639 1.067m98.083-.275c-.985.984-.565 1.985 1.099 2.624 1.429.548 1.463.414.258-1.037-1.233-1.486-1.149-1.593.775-.983 1.187.377 2.412.273 2.724-.23.594-.962-3.921-1.31-4.856-.374M227 324.359c0 .675 6.234 3.74 6.686 3.288.2-.199-.211-.821-.912-1.382-1.508-1.208-5.774-2.615-5.774-1.906m62.5.641c-.34.55-.254 1.007.191 1.015.445.009.134.493-.691 1.076-1.173.83-1.192.978-.087.681.777-.209 1.524-1.144 1.661-2.076.28-1.908-.152-2.188-1.074-.696m352.959.067c-.363.586-.445 1.281-.183 1.543s.743-.218 1.069-1.067c.676-1.762.1-2.072-.886-.476m-420.959.865c1.1.435 2.636.552 3.414.26.778-.293 1.146-.099.819.43-.327.53.328 1.032 1.455 1.117 1.978.149 1.984.105.18-1.26-1.027-.779-3.218-1.398-4.868-1.377-2.507.032-2.671.169-1 .83m131.631 1.41c-.612.738-.793 1.663-.401 2.054.392.392.05 1.131-.759 1.643-1.234.78-1.189.933.279.946.962.008 1.75-.646 1.75-1.454 0-.939.631-1.272 1.75-.924 1.635.508 1.634.47-.021-.593-.974-.625-1.51-1.559-1.191-2.075.875-1.417-.138-1.126-1.407.403m-74.464.325c-1.233 1.232-.716 2.618.583 1.563.688-.558 2.15-1.236 3.25-1.506 1.609-.396 1.496-.515-.583-.608-1.421-.064-2.884.184-3.25.551m364.511.619c-.804.968-.615 1.285.764 1.285 1.081 0 1.629-.526 1.337-1.285-.271-.707-.615-1.286-.764-1.286-.148 0-.75.579-1.337 1.286m28.155 1.171c0 .801.611 1.691 1.357 1.977 1.064.409 1.128.095.298-1.457-1.261-2.355-1.655-2.479-1.655-.52m-2.254 1.126c.048 1.165.285 1.402.604.605.289-.722.253-1.585-.079-1.917-.332-.332-.568.258-.525 1.312m-290.573 3.423c.195 5.237.466 5.367 4.274 2.042 2.697-2.355 2.962-2.933 1.586-3.461-.909-.349-1.888-.398-2.176-.111-.288.288.092.524.843.524 1.02 0 1.079.288.231 1.136-1.103 1.103-4.526-1.076-4.216-2.684.065-.34-.064-.801-.286-1.024-.223-.222-.338 1.387-.256 3.578m280.097-1.173c-.283.459.12.834.897.834s1.18-.375.897-.834c-.283-.458-.687-.833-.897-.833-.21 0-.614.375-.897.833m12.397.045c0 .482.749 1.495 1.664 2.25 1.508 1.244 1.552 1.162.465-.878-1.24-2.327-2.129-2.9-2.129-1.372m-203.559 1.567c1.068.855 2.38 1.555 2.917 1.555 1.27 0 .703-.462-2.358-1.92-2.357-1.122-2.389-1.102-.559.365m183.372-.762c.721.289 1.584.253 1.916-.079.332-.332-.258-.568-1.312-.525-1.165.048-1.402.285-.604.604m14.88 1.261c-2.316 1.483-2.52 1.908-1.169 2.427 2.422.929 3.19.736 1.476-.371-1.302-.841-1.283-.971.143-.985.904-.008 1.902-.69 2.219-1.515.316-.825.477-1.467.357-1.427-.121.04-1.482.882-3.026 1.871M158.71 336c-.287 1.1-.115 2 .384 2 .498 0 .906-.9.906-2s-.173-2-.383-2c-.211 0-.619.9-.907 2m190.125-1.327c-.916.242-1.914 1.092-2.22 1.887-.451 1.176-.093 1.144 1.915-.172 1.94-1.271 3.497-2.864 2.22-2.272-.137.064-.999.314-1.915.557m-5.345 1.343c-.346.559-1.117.715-1.714.346-.632-.391-.799-.208-.398.44.758 1.226 3.622.508 3.622-.909 0-1.192-.734-1.132-1.51.123M379.5 336c.34.55.816 1 1.059 1s.441-.45.441-1-.477-1-1.059-1-.781.45-.441 1m289.084.641c-.527 1.373-.38 1.435.893.378 1.735-1.44 1.916-2.019.63-2.019-.491 0-1.176.739-1.523 1.641M352 337.059c0 .582.45.781 1 .441s1-.816 1-1.059-.45-.441-1-.441-1 .477-1 1.059m-269 1.196c0 1.525 2.867 2.764 3.571 1.544.412-.715.381-.965-.069-.558-.45.408-1.422.24-2.16-.372-.738-.613-1.342-.889-1.342-.614m7.774 1.599c.393 1.023.728 1.139.993.345.22-.659.839-1.199 1.375-1.199.537 0 .754.36.482.8-.982 1.588 3.105 3.231 4.339 1.744 1.461-1.76-.248-2.908-4.613-3.097-2.477-.108-3.039.2-2.576 1.407m11.796-.967c-.301.487.087 1.413.862 2.057 1.153.956 1.312.794.873-.887-.594-2.271-.919-2.49-1.735-1.17m267.937.102c-.35.566.051.734.941.393 1.732-.665 2.049-1.382.611-1.382-.518 0-1.216.445-1.552.989m199.226.135c.679.684 1.486.991 1.793.683.308-.308-.247-.867-1.233-1.243-1.425-.542-1.54-.428-.56.56m-474.18.791a1.116 1.116 0 0 0 .362 1.532c.521.322 1.21.159 1.532-.362a1.116 1.116 0 0 0-.362-1.532 1.116 1.116 0 0 0-1.532.362m277.987 1.825c-1.397 1.507-2.533 3.194-2.525 3.75.009.555.397.409.862-.325.466-.735 1.134-1.297 1.485-1.25.351.047.725-.252.832-.665.393-1.519 2.333-3.024 3.211-2.491.497.303.583.03.19-.604-.984-1.594-1.176-1.519-4.055 1.585m218.273-2.057c.721.289 1.584.253 1.916-.079.332-.332-.258-.568-1.312-.525-1.165.048-1.402.285-.604.604m13.937-.021c.688.278 1.813.278 2.5 0 .688-.277.125-.504-1.25-.504s-1.937.227-1.25.504M86.875 341.5c-.069.275-.188.837-.265 1.25-.077.413-.549 1.425-1.047 2.25-.56.927-.086.78 1.242-.384 1.181-1.036 1.907-2.273 1.612-2.75-.592-.959-1.349-1.138-1.542-.366m14.362 1.74c.694 1.482 1.428 2.215 1.629 1.629.201-.586-.367-1.799-1.263-2.695-1.506-1.506-1.534-1.425-.366 1.066M452 342.531c0 1.618 1.563 1.986 2.435.574.305-.493-.119-1.153-.941-1.469-.907-.348-1.494.003-1.494.895m139.813-.848c.721.289 1.584.253 1.916-.079.332-.332-.258-.568-1.312-.525-1.165.048-1.402.285-.604.604m-429.06 1.519c-.648 1.688 1.514 1.931 2.968.333.428-.47.255-.556-.386-.189-.64.367-1.345.124-1.566-.539-.263-.788-.615-.651-1.016.395M559 343c-.901.582-1.025.975-.309.985.655.008 1.469-.435 1.809-.985.767-1.242.421-1.242-1.5 0m-475.541 1.067c-.363.586-.445 1.281-.183 1.543s.743-.218 1.069-1.067c.676-1.762.1-2.072-.886-.476m16.242 2.433c1.938 4.062 2.36 4.195 4.799 1.5.995-1.1 1.338-2 .762-2-.576 0-1.341.762-1.698 1.694-.536 1.397-.99 1.134-2.592-1.5-2.588-4.255-3.357-4.07-1.271.306m347.477-.214c-.804.968-.615 1.285.764 1.285 1.081 0 1.629-.526 1.337-1.285-.271-.707-.615-1.286-.764-1.286-.148 0-.75.579-1.337 1.286m-84.164 1.128c.648.648 1.324.648 1.972 0 .647-.647.309-.985-.986-.985s-1.633.338-.986.985m3.391.728c-1.898 2.134-1.897 2.136.345.759 1.238-.76 2.25-1.724 2.25-2.142 0-1.205-.557-.909-2.595 1.383m263.095-1.028c1.1.665 2.349 1.792 2.776 2.506.427.713 1.394 1.06 2.149.77.755-.289 1.67-.046 2.033.542.363.587 1.566 1.068 2.672 1.068 1.107 0 2.688.675 3.513 1.5 1.648 1.648 3.357 1.98 3.357.652 0-.748-4.718-3.11-9-4.505-.825-.269-.187-.525 1.417-.568 3.63-.098 3.136-.599-1.417-1.434-2.462-.452-3.055-.351-2 .341 1.299.851 1.276.985-.167.999-.916.008-1.816-.376-2-.853-.183-.477-1.458-1.174-2.833-1.548-2.302-.626-2.341-.584-.5.53M529.333 348.5c0 .825.655 1.5 1.456 1.5 1.181 0 1.221-.283.211-1.5-.685-.825-1.34-1.5-1.456-1.5-.116 0-.211.675-.211 1.5m5.417-.838c.688.278 1.813.278 2.5 0 .688-.277.125-.504-1.25-.504s-1.937.227-1.25.504m-8.937 1.021c.721.289 1.584.253 1.916-.079.332-.332-.258-.568-1.312-.525-1.165.048-1.402.285-.604.604M104 350.5c-.921 1.11-.955 1.849-.131 2.842.612.738.927 1.528.699 1.756-.228.228.789 1.779 2.259 3.447 1.47 1.668 2.381 2.565 2.024 1.994-.357-.571-.501-2.389-.319-4.039.299-2.712.203-2.826-1.005-1.19-1.457 1.976-2.432 1.208-1.985-1.565.155-.965-.128-1.501-.63-1.191-1.332.824-1.115-.951.288-2.354.66-.66.94-1.2.622-1.2-.317 0-1.137.675-1.822 1.5m-19.921 1.083c.048 1.165.285 1.402.604.605.289-.722.253-1.585-.079-1.917-.332-.332-.568.258-.525 1.312m355.651.342c-.344 1.314-.084 1.764.82 1.417.728-.279 1.079-1.145.78-1.925-.721-1.878-.999-1.79-1.6.508m7.27.468c0 .216.698.661 1.552.989.89.341 1.291.173.941-.393-.587-.951-2.493-1.406-2.493-.596m-362.921 3.19c.048 1.165.285 1.402.604.605.289-.722.253-1.585-.079-1.917-.332-.332-.568.258-.525 1.312m26.38-.516c-.363.586-.445 1.281-.183 1.543s.743-.218 1.069-1.067c.676-1.762.1-2.072-.886-.476M352.5 355c-.34.55-.141 1 .441 1s1.059-.45 1.059-1-.198-1-.441-1-.719.45-1.059 1m153.5 0c-1.293.835-1.266.971.191.985.93.008 1.969-.435 2.309-.985.782-1.266-.542-1.266-2.5 0m4 0c0 .55.477 1 1.059 1s.781-.45.441-1-.816-1-1.059-1-.441.45-.441 1m137 .06c0 .7.302.972.67.603.369-.368 1.719.017 3 .857 1.282.839 2.33 1.099 2.33.576 0-.522.788-1.15 1.75-1.396.962-.245.4-.428-1.25-.407-1.65.022-3.788-.308-4.75-.733-1.156-.511-1.75-.341-1.75.5m12.083.299c.23.198 1.767.662 3.417 1.031 2.191.49 2.595.397 1.5-.344-1.35-.914-5.92-1.552-4.917-.687m-227.517 2.534c-.376.609-.095 1.114.625 1.122 1.043.013 1.033.19-.048.875-.834.529-.971 1.098-.355 1.479 1.313.811 2.25-1.689 1.244-3.316-.553-.896-.982-.943-1.466-.16m222.941.096c-.35.566.051.734.941.393 1.732-.665 2.049-1.382.611-1.382-.518 0-1.216.445-1.552.989m-475.904 1.844c-.283.459.12.834.897.834s1.18-.375.897-.834c-.283-.458-.687-.833-.897-.833-.21 0-.614.375-.897.833m5 0c-.283.459.12.834.897.834s1.18-.375.897-.834c-.283-.458-.687-.833-.897-.833-.21 0-.614.375-.897.833M304.5 360c.34.55 1.068 1 1.618 1s.722-.45.382-1c-.34-.55-1.068-1-1.618-1s-.722.45-.382 1m353.864.506c3.626 1.891 4.72 1.872 2.195-.038-1.068-.807-2.643-1.465-3.5-1.462-.858.004-.27.679 1.305 1.5m-546.794.381c-.301.487.122 1.442.941 2.122.819.68 1.489 1.701 1.489 2.268 0 .568-1.013.176-2.25-.872l-2.25-1.905 1.926 2.274c1.285 1.515 2.26 1.94 2.927 1.273.666-.666.44-1.618-.679-2.855-.923-1.02-1.377-2.155-1.01-2.523.368-.368.396-.669.062-.669-.335 0-.855.399-1.156.887m234.43.554c0 .793.408 1.693.907 2.001.498.309.671-.34.383-1.441-.611-2.335-1.29-2.63-1.29-.56m154.51-.425c.346.559 1.047.758 1.559.441 1.387-.857 1.129-1.457-.628-1.457-.857 0-1.276.457-.931 1.016m163.359.326c.612.738.78 1.71.372 2.16-.407.45-.157.481.558.069 1.22-.704-.019-3.571-1.544-3.571-.275 0 .001.604.614 1.342M118.273 364c1.398 1.1 2.921 1.985 3.385 1.967 1.189-.047-3.657-3.967-4.904-3.967-.563 0 .12.9 1.519 2m376.079-1.24c.363.588.095 1.297-.596 1.576-.899.362-.917.529-.065.585 1.721.114 2.548-1.656 1.171-2.506-.698-.432-.904-.292-.51.345m175.648.209c0 .532-.629.727-1.399.431-.769-.295-1.739.014-2.154.686-.484.782-.34.966.398.509.635-.392 1.155-.21 1.155.405s.45.84 1 .5c.55-.34 1-.072 1 .596 0 .753.759.527 2-.596 1.1-.995 1.986-2.303 1.97-2.905-.017-.602-.489-.307-1.05.655-1.244 2.136-3.083 2.337-2.282.25.317-.825.303-1.5-.031-1.5-.334 0-.607.436-.607.969M302.5 364c-.34.55-.141 1 .441 1s1.059-.45 1.059-1-.198-1-.441-1-.719.45-1.059 1m181.372.75c-1.269 1.619-1.222 1.64.628.283 1.1-.807 2.188-1.594 2.417-1.75.229-.156-.054-.283-.628-.283s-1.662.788-2.417 1.75M678.5 365c.34.55.816 1 1.059 1s.441-.45.441-1-.477-1-1.059-1-.781.45-.441 1m-485.628 1.25c1.181 1.506 1.155 1.75-.191 1.75-.859 0-1.815.408-2.123.907-.309.498.347.669 1.456.379 2.848-.745 3.241-1.842 1.225-3.423-1.574-1.233-1.609-1.197-.367.387m-75.121 1.906c.431 1.649.233 1.971-.843 1.366-.775-.435.002.672 1.726 2.459 2.596 2.691 3.454 3.062 5 2.164 1.937-1.126.754-1.651-2.634-1.168-.825.117-1.199-.093-.832-.467.829-.843-1.062-6.51-2.172-6.51-.445 0-.555.97-.245 2.156M672.5 367c-.34.55.084 1 .941 1s1.559-.45 1.559-1-.423-1-.941-1-1.219.45-1.559 1M423 368c-1.282.828-1.246.972.25.985.962.008 1.75-.435 1.75-.985 0-1.22-.113-1.22-2 0m-6.209.542c-.359.359-.409 1.29-.111 2.067.359.934.05 1.225-.908.857-.799-.306-2.029.138-2.734.988-.87 1.048-.921 1.546-.16 1.546.617 0 1.122.675 1.122 1.5s.477 1.5 1.059 1.5.734-.526.336-1.17c-.495-.801-.164-.955 1.052-.489 1.31.503 1.626.292 1.206-.803-.314-.817.091-1.855.898-2.307 1.216-.68 1.247-1.125.181-2.582-.708-.969-1.581-1.467-1.941-1.107m259.209.359c0 .496 1.688 1.88 3.75 3.076l3.75 2.175-3.312-3.076c-3.517-3.267-4.188-3.615-4.188-2.175m-588.921 2.682c.048 1.165.285 1.402.604.605.289-.722.253-1.585-.079-1.917-.332-.332-.568.258-.525 1.312m38.553 1.115c2.055 1.765 2.389 2.572 1.508 3.634-2.026 2.44 1.69 4.721 6.08 3.731 2.024-.456 4-.545 4.39-.196.391.348.424.131.075-.482-.35-.613-1.873-.98-3.385-.814-1.511.166-3.435-.232-4.274-.884-1.335-1.038-1.354-.968-.154.563 1.663 2.12-.113 2.37-1.862.262-1.003-1.208-.921-1.609.432-2.128 1.501-.576 1.462-.858-.397-2.836-1.135-1.208-1.856-2.404-1.602-2.658s-.419-.461-1.495-.461c-1.742 0-1.667.249.684 2.269m2.911-1.767c-.317.512-.193 1.167.274 1.456.467.289.85-.13.85-.931 0-1.686-.316-1.833-1.124-.525m555.189 1.783c1.224 1.868 1.248 2.289.133 2.301-1.121.013-1.113.175.044.908 2.263 1.432 4.55.133 2.458-1.397-.931-.68-1.445-1.88-1.143-2.667.348-.908-.097-1.43-1.22-1.43-1.613 0-1.637.201-.272 2.285m2.852-1.073c-.527 1.373-.38 1.435.893.378 1.735-1.44 1.916-2.019.63-2.019-.491 0-1.176.739-1.523 1.641m-603.505 1.942c.048 1.165.285 1.402.604.605.289-.722.253-1.585-.079-1.917-.332-.332-.568.258-.525 1.312m190.171.001c-4.025 1.761-4.058 2.083-.211 2.083 1.96 0 2.582-.291 1.75-.818-.952-.605-.832-.822.461-.834.962-.008 1.75-.465 1.75-1.015 0-.55-.113-.963-.25-.918-.137.044-1.712.721-3.5 1.502m53.563-.901c.721.289 1.584.253 1.916-.079.332-.332-.258-.568-1.312-.525-1.165.048-1.402.285-.604.604m87.187.376c0 .582.45.781 1 .441s1-.816 1-1.059-.45-.441-1-.441-1 .477-1 1.059M205.5 374c.34.55.816 1 1.059 1s.441-.45.441-1-.477-1-1.059-1-.781.45-.441 1m-119.769 1.92c-.435 1.663-.305 2.054.437 1.312.582-.582.86-1.647.62-2.369-.25-.749-.703-.295-1.057 1.057m324.927-.369c.607 1.582 2.342 1.994 2.342.556 0-.491-.652-1.143-1.449-1.449-.969-.372-1.265-.076-.893.893M474 374.393c0 .216.698.661 1.552.989.89.341 1.291.173.941-.393-.587-.951-2.493-1.406-2.493-.596m-254.25 1.269c.688.278 1.813.278 2.5 0 .688-.277.125-.504-1.25-.504s-1.937.227-1.25.504m58.75.338c2.749 1.181 4.328 1.181 2.5 0-.825-.533-2.175-.945-3-.914-.989.036-.819.347.5.914m-16.687.683c.721.289 1.584.253 1.916-.079.332-.332-.258-.568-1.312-.525-1.165.048-1.402.285-.604.604m427.187.376c0 .582-.562.721-1.25.308-.86-.516-.824-.226.113.93 1.57 1.936 3.323 1.351 2.486-.829-.658-1.715-1.349-1.925-1.349-.409m-469.187.624c.721.289 1.584.253 1.916-.079.332-.332-.258-.568-1.312-.525-1.165.048-1.402.285-.604.604m98.252 1.738c-.968 1.167-.81 1.325.878.884 1.131-.296 2.057-.936 2.057-1.422 0-1.348-1.614-1.053-2.935.538m374.099-.119c-.798.962-.578 1.317.887 1.427 1.997.15 2.65-1.178 1.062-2.159-.487-.301-1.364.028-1.949.732M132 381.965c0 1.459 3.768 3.22 4.467 2.088.324-.524-.294-1.425-1.373-2.003-2.432-1.301-3.094-1.32-3.094-.085m276.295 1.483c-.943 1.073-.933 1.477.045 1.852.707.271 1.313-.342 1.393-1.41.168-2.219.133-2.23-1.438-.442m289.042 2.712c2.184 2.012 4.588 3.422 5.342 3.133 1.623-.623-.181-3.41-2.062-3.188-2.623.31-3.696-.173-3.016-1.355.396-.687.347-.912-.11-.498-.456.414-1.57.189-2.476-.5-.906-.689.139.395 2.322 2.408m-381.83-2.171c-.35.566.051.734.941.393 1.732-.665 2.049-1.382.611-1.382-.518 0-1.216.445-1.552.989m135 3c-.35.566.051.734.941.393 1.732-.665 2.049-1.382.611-1.382-.518 0-1.216.445-1.552.989M93 388c0 .55.477 1 1.059 1s.781-.45.441-1-.816-1-1.059-1-.441.45-.441 1m47-.358c0 .676 9.089 4.603 9.561 4.131.217-.217-1.846-1.341-4.583-2.498-2.738-1.157-4.978-1.891-4.978-1.633m7.5.358c-1.261.542-1.445.859-.5.859.825 0 2.4-.386 3.5-.859 1.261-.542 1.445-.859.5-.859-.825 0-2.4.386-3.5.859m248.285 1.5c-2.023 1.375-4.126 2.5-4.673 2.5-.547 0-1.248.41-1.558.912-.64 1.035 2.019.849 3.084-.216.382-.383 1.534-.696 2.56-.696s2.138-.713 2.472-1.584c.335-.871 1.558-1.967 2.719-2.436 1.328-.537 1.548-.877.593-.917-.835-.034-3.173 1.062-5.197 2.437M700.5 388c.34.55.816 1 1.059 1s.441-.45.441-1-.477-1-1.059-1-.781.45-.441 1M.423 409.5c.001 11.55.147 16.138.324 10.196.177-5.943.176-15.393-.002-21-.178-5.608-.323-.746-.322 10.804m703.674-19.117c-.875 1.054-.836 1.503.163 1.887.796.305 1.311-.238 1.311-1.384 0-2.254-.016-2.26-1.474-.503m-609.651.704c-.369.598-.222 1.537.328 2.087.667.667 1.256.586 1.768-.241.529-.858.357-.989-.557-.423-.962.594-1.15.362-.686-.846.718-1.871.174-2.238-.853-.577m-3.744 1.246c-.281.734.078 1.334.798 1.334.72 0 1.079-.6.798-1.334-.282-.733-.641-1.333-.798-1.333-.157 0-.516.6-.798 1.333M151.5 393c.34.55.816 1 1.059 1s.441-.45.441-1-.477-1-1.059-1-.781.45-.441 1m454.313.683c.721.289 1.584.253 1.916-.079.332-.332-.258-.568-1.312-.525-1.165.048-1.402.285-.604.604m6 0c.721.289 1.584.253 1.916-.079.332-.332-.258-.568-1.312-.525-1.165.048-1.402.285-.604.604m18.937-.021c.688.278 1.813.278 2.5 0 .688-.277.125-.504-1.25-.504s-1.937.227-1.25.504m-471.417 1.74c0 1.464 5.472 1.366 8.176-.147 1.289-.722.989-.922-1.387-.922-1.669 0-2.802.375-2.519.834.68 1.1-.319 1.055-2.502-.113-1.267-.678-1.768-.579-1.768.348m120.929-.71c.969.253 1.462.945 1.096 1.538-.4.647-.198.789.504.355 1.564-.966.449-2.614-1.671-2.469-1.512.104-1.504.165.071.576m315.738.277c0 .532.675.709 1.5.393.825-.317 1.5-.753 1.5-.969 0-.216-.675-.393-1.5-.393s-1.5.436-1.5.969M707.5 396c.995 1.1 2.04 2 2.322 2 .281 0 .215-.296-.147-.658-.362-.362-.099-1.374.584-2.25 1.098-1.409 1.039-1.434-.509-.22-1.145.899-1.75.985-1.75.25 0-.617-.52-1.122-1.155-1.122-.655 0-.371.866.655 2m4.574-.589c-.856 1.031-.87 1.597-.054 2.101.614.38.88 1.305.592 2.057-.289.752-.188 1.575.224 1.83.412.254.814-.398.893-1.449.079-1.051-.299-2.185-.841-2.519-.625-.386-.556-1.126.186-2.02.644-.776.946-1.411.671-1.411-.275 0-1.027.635-1.671 1.411m-613.51 1.882c.376.986.935 1.541 1.243 1.233.308-.307.001-1.114-.683-1.793-.988-.98-1.102-.865-.56.56M277.5 397c.34.55.816 1 1.059 1s.441-.45.441-1-.477-1-1.059-1-.781.45-.441 1m377.5-.115c0 .897 3.005 2.443 3.598 1.851.171-.172-.568-.861-1.643-1.532-1.075-.672-1.955-.815-1.955-.319m8 2.115c.825.533 2.175.945 3 .914.989-.036.819-.347-.5-.914-2.749-1.181-4.328-1.181-2.5 0m-284 .833c0 .459.655.834 1.456.834.801 0 1.224-.375.941-.834-.283-.458-.938-.833-1.456-.833s-.941.375-.941.833m-278.877 2.796c-.659 1.446-.997 2.83-.752 3.076.246.245.745-.495 1.11-1.644.365-1.15 1.075-1.835 1.58-1.524.504.312.648-.131.321-.985-.782-2.036-.857-2.001-2.259 1.077m555.89-1.658c-1.179.745-1.037.907.68.777 1.193-.09 1.948-.52 1.679-.956-.599-.969-.537-.973-2.359.179m13.72.153c.679.684 1.486.991 1.793.683.308-.308-.247-.867-1.233-1.243-1.425-.542-1.54-.428-.56.56M201 402.986c.825.541 2.588.99 3.917.999 3.209.02 2.396-.549-1.917-1.34-2.462-.452-3.055-.351-2 .341M431 403c0 .55.45 1 1 1s1-.45 1-1-.45-1-1-1-1 .45-1 1m136-.607c0 .216.698.661 1.552.989.89.341 1.291.173.941-.393-.587-.951-2.493-1.406-2.493-.596m-381.25 1.313c1.238.238 3.262.238 4.5 0 1.238-.239.225-.434-2.25-.434s-3.488.195-2.25.434m11.063-.023c.721.289 1.584.253 1.916-.079.332-.332-.258-.568-1.312-.525-1.165.048-1.402.285-.604.604m51.937-.021c.688.278 1.813.278 2.5 0 .688-.277.125-.504-1.25-.504s-1.937.227-1.25.504M254 404c-1.282.828-1.246.972.25.985.963.008 1.75-.435 1.75-.985 0-1.22-.113-1.22-2 0m311 0c.825.533 1.95.969 2.5.969s.325-.436-.5-.969c-.825-.533-1.95-.969-2.5-.969s-.325.436.5.969m155-.147c0 .722-.986 1.007-2.52.729-1.531-.277-2.277-.063-1.9.547.341.552.871.753 1.178.446.307-.307 1.109-.1 1.783.459 1.237 1.027 3.133-1.693 1.983-2.844-.288-.288-.524.01-.524.663m-618 1.155c-1.501.962-.271 1.537 2.325 1.085.454-.079.537.881.185 2.132-.412 1.462-.323 1.82.248 1.001.688-.985 1.304-.815 2.721.75 1.648 1.822 1.424 2.482-.729 2.142-1.185-.187-.885.604.912 2.401 1.405 1.405 1.444 1.801.25 2.556-1.61 1.02-.814 1.208 1.443.342.864-.331 1.295-1.301 1-2.25-.408-1.311-.181-1.253 1.063.274.87 1.068 1.582 1.495 1.582.95 0-1.761-2.199-3.252-3.872-2.626-1.308.49-1.401.327-.471-.828 1.661-2.064-4.45-9.344-6.657-7.929M233 405c-1.207.78-1.049.972.809.985 1.288.008 2.036-.427 1.691-.985-.743-1.202-.639-1.202-2.5 0m-9.187.683c.721.289 1.584.253 1.916-.079.332-.332-.258-.568-1.312-.525-1.165.048-1.402.285-.604.604m148.059 1.067c-1.243 1.586-1.208 1.621.378.378.962-.755 1.75-1.543 1.75-1.75 0-.823-.821-.294-2.128 1.372m55.795-1.083c-.367.366-.667 1.69-.667 2.942 0 1.788-.459 2.188-2.142 1.864-1.179-.227-2.866.045-3.75.605-1.256.795-1.088.874.767.363 1.481-.409 2.142-.278 1.756.347-1.199 1.94 2.298 2.089 4.57.195 1.265-1.054 1.737-1.931 1.049-1.95-.687-.018-1.25-.896-1.25-1.95 0-1.054.563-2.143 1.25-2.421.698-.281.771-.539.167-.583-.596-.043-1.384.221-1.75.588m5.84.322c-.35.566.051.734.941.393 1.732-.665 2.049-1.382.611-1.382-.518 0-1.216.445-1.552.989M561.5 406c1.1.473 2.675.859 3.5.859.945 0 .761-.317-.5-.859-1.1-.473-2.675-.859-3.5-.859-.945 0-.761.317.5.859m113.043-.069c-.317.512-.049 1.256.595 1.654.767.474.902.289.391-.538-.58-.939-.172-1.089 1.596-.589 1.831.519 2.032.433.875-.377-1.866-1.306-2.72-1.343-3.457-.15m-243.876.736c-.367.366-.667 1.131-.667 1.7 0 .626.466.567 1.183-.15.651-.651.951-1.416.667-1.7-.284-.284-.817-.217-1.183.15m250.146 1.016c.721.289 1.584.253 1.916-.079.332-.332-.258-.568-1.312-.525-1.165.048-1.402.285-.604.604m3.187-.253c0 .275.9.981 2 1.57 1.1.589 2 .845 2 .57s-.9-.981-2-1.57c-1.1-.589-2-.845-2-.57m-583 1.629c0 .582.45.781 1 .441s1-.816 1-1.059-.45-.441-1-.441-1 .477-1 1.059m462.813-.376c.721.289 1.584.253 1.916-.079.332-.332-.258-.568-1.312-.525-1.165.048-1.402.285-.604.604m156.065.899c.557 1.145 1.825 2.706 2.817 3.467.993.762 1.471.991 1.064.51-.408-.481-.205-1.591.451-2.467 1.008-1.344.971-1.393-.234-.316-1.178 1.053-1.75.878-3.269-1-1.634-2.02-1.727-2.042-.829-.194m-351.264.981c-.33.86-.972 1.334-1.428 1.052-.455-.281-2.568.992-4.695 2.83l-3.867 3.342 3.237-.275c3.061-.261 5.797-1.512 3.306-1.512-.642 0-1.167-.477-1.167-1.059s.441-.787.979-.454c1.147.709 5.467-1.375 4.615-2.226-.317-.317-.075-1.181.537-1.919.7-.844.737-1.342.098-1.342-.558 0-1.285.704-1.615 1.563m180.006.391c.3.3 1.617.567 2.926.592 1.308.025 2.134-.2 1.834-.5-.3-.3-1.617-.567-2.926-.592-1.308-.025-2.134.2-1.834.5m177.713.643c0 .937.372 1.062 1.176.396.646-.537 1.359-.867 1.583-.734.224.132.282.04.129-.205-.691-1.103-2.888-.69-2.888.543m-181.327.399c-.958.593-.656.924 1.082 1.187 1.327.2 2.305.9 2.174 1.555-.136.68.4.945 1.25.619 1.94-.744 1.905-.854-.844-2.655-1.39-.911-2.869-1.196-3.662-.706m146.413-.18c-1.219.846-1.223 2.739-.009 3.851.529.484.609.309.191-.417-.889-1.546-.385-1.564 2.821-.104 1.383.631 2.333 1.441 2.111 1.8-.222.36.673.654 1.988.654 1.839 0 2.145-.298 1.322-1.289-.588-.709-1.469-1.042-1.956-.741-.488.301-.887.071-.887-.511s-.337-1.006-.75-.941c-1.943.307-3.313-.208-2.793-1.049.748-1.21-.762-2.138-2.038-1.253M365.5 413c-.34.55-.141 1 .441 1s1.059-.45 1.059-1-.198-1-.441-1-.719.45-1.059 1m53.065 1.895c-1.02 1.649 2.759 2.21 4.327.642 1.028-1.029 1.135-1.537.322-1.537-.668 0-1.214.45-1.214 1s-.477 1-1.059 1-.781-.45-.441-1 .168-1-.382-1-1.249.403-1.553.895m308.978.036c-.317.512-.193 1.167.274 1.456.467.289.85-.13.85-.931 0-1.686-.316-1.833-1.124-.525m-3.543.447c0 .207.788.995 1.75 1.75 1.586 1.243 1.621 1.208.378-.378-1.307-1.666-2.128-2.195-2.128-1.372m-367.98 4.098c-.789.95-.865 1.524-.201 1.524 1.208 0 2.617-1.897 1.924-2.591-.252-.251-1.027.229-1.723 1.067m58.73-.478c1.94 2.175 1.472 3.513-.579 1.657-2.385-2.159-2.712-2.093-2.914.582-.125 1.667.056 1.875.711.815.653-1.057 1.221-1.14 2.206-.323 1.002.831 2.011.51 4.132-1.315 2.762-2.376 2.595-3.269-.272-1.456-.941.595-2.016.517-3-.217-1.276-.952-1.324-.909-.284.257m-300.147.835c-.283.459.12.834.897.834s1.18-.375.897-.834c-.283-.458-.687-.833-.897-.833-.21 0-.614.375-.897.833m244.182.311c-.491 1.474 1.374 5.837 2.5 5.848.432.004.32-.862-.25-1.926-1.421-2.656-1.376-5.092.056-3.066.863 1.22.989 1.232.673.063-.513-1.896-2.453-2.495-2.979-.919m201.722-.155c-.35.566.051.734.941.393 1.732-.665 2.049-1.382.611-1.382-.518 0-1.216.445-1.552.989m16.243-.327c.688.278 1.813.278 2.5 0 .688-.277.125-.504-1.25-.504s-1.937.227-1.25.504m122.25-.284c0 .207.788.995 1.75 1.75 1.586 1.243 1.621 1.208.378-.378-1.307-1.666-2.128-2.195-2.128-1.372m35 .24c0 .55.603 1.824 1.339 2.831 1.278 1.748 1.371 1.75 2.024.048.376-.981.448-2.019.161-2.307-.288-.288-.538.114-.556.893-.022.996-.467.841-1.5-.524-.807-1.068-1.468-1.491-1.468-.941M567.5 421c-2.722.693-2.768.768-.5.811 1.375.027 3.4-.338 4.5-.811 2.466-1.06.164-1.06-4 0m90.5-.665c0 .258 1.452.976 3.227 1.594 1.775.619 2.788.714 2.25.211-1.139-1.066-5.477-2.496-5.477-1.805m46 .597c0 .587.477 1.068 1.059 1.068s.738.52.346 1.155c-.452.73-.274.882.484.413 1.497-.924 4.319 1.287 3.445 2.7-.373.604-.159.742.511.327.635-.392 1.155-.252 1.155.311s1.007 1.563 2.238 2.222c1.847.988 1.716.633-.75-2.031-3.862-4.172-8.488-7.532-8.488-6.165m28.516 2.452c2.092 3.193 2.691 3.349 1.606.417-.447-1.209-1.377-2.386-2.067-2.616-.805-.268-.64.519.461 2.199m-617.913-.551c-.283.459.12.834.897.834s1.18-.375.897-.834c-.283-.458-.687-.833-.897-.833-.21 0-.614.375-.897.833m3.722-.175c.362.362.099 1.374-.584 2.25-1.096 1.406-1.038 1.433.498.229 1.564-1.227 1.586-3.137.035-3.137-.334 0-.311.296.051.658m543.116 1.787c1.068.855 2.38 1.555 2.917 1.555 1.27 0 .703-.462-2.358-1.92-2.357-1.122-2.389-1.102-.559.365M731 425c.589 1.1 1.295 2 1.57 2 .275 0 .019-.9-.57-2s-1.295-2-1.57-2c-.275 0-.019.9.57 2m-320.57-.113c.734 1.187-1.893 3.296-2.932 2.354-.45-.407-.477-.149-.059.574.606 1.049 1.139.972 2.637-.384 1.63-1.475 1.805-3.431.306-3.431-.275 0-.253.399.048.887m325.088 2.056c-.849 2.676-.201 3.585 1.282 1.798.623-.751.731-1.882.252-2.657-.634-1.025-1.001-.819-1.534.859M676 427c-.825.533-1.05.969-.5.969s1.675-.436 2.5-.969c.825-.533 1.05-.969.5-.969s-1.675.436-2.5.969m-334.559 2.582c-1.657 1.35-1.685 1.501-.191 1.031.962-.303 1.75-.152 1.75.335s-.54 1.065-1.199 1.285c-.738.246-.525.659.551 1.072 1.188.456 1.521.299 1.036-.486-.472-.764-.172-.95.882-.546 1.126.433 1.556.073 1.459-1.22-.088-1.17-.666-1.631-1.598-1.273-.94.361-1.202.144-.736-.61.99-1.602.352-1.467-1.954.412m-218.952.436c-.379.613-.419 1.385-.089 1.715.33.33.6.049.6-.625s.457-.943 1.016-.598c.559.346.758 1.047.441 1.559-.316.512-.098.931.484.931 1.499 0 1.313-1.544-.352-2.926-1.029-.854-1.597-.869-2.1-.056m554.696-.552c1.854 1.547 4.482 2.268 4.482 1.23 0-.658-1.08-1.263-2.399-1.344-1.319-.082-2.256-.03-2.083.114m-549.852 1.867a1.33 1.33 0 0 0 1.318 1.334c.984 0 1.038-.337.211-1.334-.609-.733-1.202-1.333-1.318-1.333-.116 0-.211.6-.211 1.333m275.27-.5c-.283.459.12.834.897.834s1.18-.375.897-.834c-.283-.458-.687-.833-.897-.833-.21 0-.614.375-.897.833M706 430.378c0 .207.685.946 1.523 1.641 1.273 1.057 1.42.995.893-.378-.538-1.401-2.416-2.384-2.416-1.263m-369.72 2.265c1.103 1.786-1.12 4.1-2.265 2.357-.843-1.284-.987-1.248-1 .25-.008.962.435 1.75.985 1.75s1.315.033 1.7.074c1.289.137 2.255-3.984 1.101-4.697-.61-.377-.845-.258-.521.266M717 434.059c0 .582.45.781 1 .441s1-.816 1-1.059-.45-.441-1-.441-1 .477-1 1.059m-585.4.779c-.318.515.052 1.458.822 2.097.828.687 1.636.78 1.978.227.318-.515-.052-1.458-.822-2.097-.828-.687-1.636-.78-1.978-.227m550.4-.488c0 1.175 4.96 3.523 5.522 2.614.345-.557.256-.907-.198-.776-.453.13-1.837-.325-3.074-1.011-1.237-.686-2.25-1.058-2.25-.827m62.158 1.65c0 1.375.227 1.938.504 1.25.278-.687.278-1.812 0-2.5-.277-.687-.504-.125-.504 1.25M720 435.485c0 .437.788 1.392 1.75 2.123 1.419 1.077 1.467 1.337.25 1.376-.92.028-1.098.331-.462.781.572.404 2.027 2.31 3.234 4.235 1.207 1.925 2.202 2.964 2.211 2.309.009-.655-.433-1.469-.983-1.809-.55-.34-1-1.097-1-1.681 0-.631.696-.506 1.711.309 1.256 1.007 1.151.574-.392-1.628-2.442-3.483-6.319-7.174-6.319-6.015M395 437c.825.533 1.95.969 2.5.969s.325-.436-.5-.969c-.825-.533-1.95-.969-2.5-.969s-.325.436.5.969m296-.107c0 .491.739 1.176 1.641 1.523 1.373.527 1.435.38.378-.893-1.44-1.735-2.019-1.916-2.019-.63m47.652.643c.282.736 1.171 1.086 1.974.777 1.622-.622 1.071-1.593-1.086-1.91-.802-.118-1.182.367-.888 1.133m-602.418-.061c.404.455-.001 1.366-.901 2.023-1.299.95-1.367 1.363-.33 2.004.837.517 1.063.415.63-.287-.832-1.345 3.317-1.277 5.117.084.688.52 1.25.696 1.25.392 0-.305-1.463-1.565-3.25-2.799s-2.919-1.872-2.516-1.417m552.499 1.649c.679.684 1.486.991 1.793.683.308-.308-.247-.867-1.233-1.243-1.425-.542-1.54-.428-.56.56m-358.292 1.321c1.068.855 2.38 1.555 2.917 1.555 1.27 0 .703-.462-2.358-1.92-2.357-1.122-2.389-1.102-.559.365M334.5 440c.34.55.816 1 1.059 1s.441-.45.441-1-.477-1-1.059-1-.781.45-.441 1m389.064.293c.376.986.935 1.541 1.243 1.233.308-.307.001-1.114-.683-1.793-.988-.98-1.102-.865-.56.56m-592.961.54c-.283.459.12.834.897.834s1.18-.375.897-.834c-.283-.458-.687-.833-.897-.833-.21 0-.614.375-.897.833m565.476.75c.048 1.165.285 1.402.604.605.289-.722.253-1.585-.079-1.917-.332-.332-.568.258-.525 1.312M383 443l-2.5.801 2.75.099c1.512.055 2.75-.35 2.75-.9s-.113-.955-.25-.9c-.137.055-1.375.46-2.75.9m-242 .902c0 1.038 1.902 2.541 2.466 1.948.183-.192-.297-.93-1.067-1.639-.769-.71-1.399-.849-1.399-.309m176.813-.219c.721.289 1.584.253 1.916-.079.332-.332-.258-.568-1.312-.525-1.165.048-1.402.285-.604.604m422.536 1.769c-.633.688-.808 1.806-.388 2.484.521.844.951.51 1.361-1.058.726-2.777.532-3.061-.973-1.426M383 446c0 .55.45 1 1 1s1-.45 1-1-.45-1-1-1-1 .45-1 1m-234 1c-.901.582-1.025.975-.309.985.655.008 1.469-.435 1.809-.985.767-1.242.421-1.242-1.5 0m170-.607c0 .216.698.661 1.552.989.89.341 1.291.173.941-.393-.587-.951-2.493-1.406-2.493-.596m404-.015c0 .207.788.995 1.75 1.75 1.586 1.243 1.621 1.208.378-.378-1.307-1.666-2.128-2.195-2.128-1.372m7.352.382c.363.588.095 1.297-.596 1.576-.899.362-.917.529-.065.585 1.721.114 2.548-1.656 1.171-2.506-.698-.432-.904-.292-.51.345m-588.539 1.923c.721.289 1.584.253 1.916-.079.332-.332-.258-.568-1.312-.525-1.165.048-1.402.285-.604.604m485.456.01c.973.254 2.323.237 3-.037.677-.274-.119-.481-1.769-.461-1.65.02-2.204.244-1.231.498m18.481-.031c.688.278 1.813.278 2.5 0 .688-.277.125-.504-1.25-.504s-1.937.227-1.25.504m58.814.631c.376.986.935 1.541 1.243 1.233.308-.307.001-1.114-.683-1.793-.988-.98-1.102-.865-.56.56M157 450.754c0 .448 1.35 1.612 3 2.587 1.65.975 3 1.606 3 1.404 0-.203-1.35-1.367-3-2.587-1.65-1.22-3-1.851-3-1.404m220.667.913c-.367.366-.667 1.131-.667 1.7 0 .626.466.567 1.183-.15.651-.651.951-1.416.667-1.7-.284-.284-.817-.217-1.183.15m334.412 1.916c.048 1.165.285 1.402.604.605.289-.722.253-1.585-.079-1.917-.332-.332-.568.258-.525 1.312m-555.551 1.292c2.1 1.998 9.028 3.833 7.963 2.11-.335-.542-1.652-.985-2.928-.985-1.275 0-2.878-.675-3.563-1.5s-1.74-1.5-2.345-1.5c-.605 0-.212.844.873 1.875M164 454c0 .55.477 1 1.059 1s.781-.45.441-1-.816-1-1.059-1-.441.45-.441 1m434.768 1.168c.582.582 1.647.86 2.369.62.749-.25.295-.703-1.057-1.057-1.663-.435-2.054-.305-1.312.437m4.982-.506c.688.278 1.813.278 2.5 0 .688-.277.125-.504-1.25-.504s-1.937.227-1.25.504m73.063.021c.721.289 1.584.253 1.916-.079.332-.332-.258-.568-1.312-.525-1.165.048-1.402.285-.604.604m-389.306 1.306c-.35.566.051.734.941.393 1.732-.665 2.049-1.382.611-1.382-.518 0-1.216.445-1.552.989M593 456c-.901.582-1.025.975-.309.985.655.008 1.469-.435 1.809-.985.767-1.242.421-1.242-1.5 0m-297.187.683c.721.289 1.584.253 1.916-.079.332-.332-.258-.568-1.312-.525-1.165.048-1.402.285-.604.604m375 0c.721.289 1.584.253 1.916-.079.332-.332-.258-.568-1.312-.525-1.165.048-1.402.285-.604.604M355 459c-1.828 1.181-.249 1.181 2.5 0 1.319-.567 1.489-.878.5-.914-.825-.031-2.175.381-3 .914m224.583-.25c-.412.413-1.162.75-1.666.75s-.955.45-1.002 1c-.047.55-.609 1.675-1.25 2.5-.988 1.272-.923 1.311.427.259.876-.683 1.926-.908 2.333-.5.408.407.592.21.408-.438-.183-.649.567-1.872 1.667-2.719 1.1-.846 1.513-1.553.917-1.57-.596-.018-1.421.305-1.834.718M180 460c0 .55.477 1 1.059 1s.781-.45.441-1-.816-1-1.059-1-.441.45-.441 1m532.079.583c.048 1.165.285 1.402.604.605.289-.722.253-1.585-.079-1.917-.332-.332-.568.258-.525 1.312m-444.81.11c.973.254 2.323.237 3-.037.677-.274-.119-.481-1.769-.461-1.65.02-2.204.244-1.231.498m-83.456.99c.721.289 1.584.253 1.916-.079.332-.332-.258-.568-1.312-.525-1.165.048-1.402.285-.604.604m3.937-.021c.688.278 1.813.278 2.5 0 .688-.277.125-.504-1.25-.504s-1.937.227-1.25.504m167.433.555c-.65.651-1.183 1.575-1.183 2.054 0 .48.729.143 1.619-.747.891-.891 1.423-1.815 1.183-2.055-.239-.24-.968.097-1.619.748m351.381.49c-.542 1.425-.428 1.54.56.56.684-.679.991-1.486.683-1.793-.308-.308-.867.247-1.243 1.233M188.5 464c2.749 1.181 4.328 1.181 2.5 0-.825-.533-2.175-.945-3-.914-.989.036-.819.347.5.914m57.313-.317c.721.289 1.584.253 1.916-.079.332-.332-.258-.568-1.312-.525-1.165.048-1.402.285-.604.604m15.187-.29c0 .216.675.652 1.5.969.825.316 1.5.139 1.5-.393 0-.533-.675-.969-1.5-.969s-1.5.177-1.5.393m436.5.607c.34.55.816 1 1.059 1s.441-.45.441-1-.477-1-1.059-1-.781.45-.441 1m4.313-.317c.721.289 1.584.253 1.916-.079.332-.332-.258-.568-1.312-.525-1.165.048-1.402.285-.604.604m-436.255 1.224c-.309.498.34.671 1.441.383 2.335-.611 2.63-1.29.56-1.29-.793 0-1.693.408-2.001.907m396.255 2.776c.721.289 1.584.253 1.916-.079.332-.332-.258-.568-1.312-.525-1.165.048-1.402.285-.604.604m-38 1c.721.289 1.584.253 1.916-.079.332-.332-.258-.568-1.312-.525-1.165.048-1.402.285-.604.604m33 0c.721.289 1.584.253 1.916-.079.332-.332-.258-.568-1.312-.525-1.165.048-1.402.285-.604.604M559.5 471c.995 1.1 2.035 2 2.31 2 .275 0-.315-.9-1.31-2-.995-1.1-2.035-2-2.31-2-.275 0 .315.9 1.31 2m92.313-1.317c.721.289 1.584.253 1.916-.079.332-.332-.258-.568-1.312-.525-1.165.048-1.402.285-.604.604m9.937-.021c.688.278 1.813.278 2.5 0 .688-.277.125-.504-1.25-.504s-1.937.227-1.25.504m-110.032 5.917c-1.343 1.795-1.423 2.245-.328 1.825.801-.307 1.726-1.263 2.056-2.124.935-2.437.226-2.314-1.728.299m-221.051-.912c-1.172 1.171-.714 2.481.583 1.667.688-.431 2.15-.69 3.25-.575l2 .208-2-.913c-2.537-1.158-3.014-1.207-3.833-.387m215.738 2.475c-1.898 2.134-1.897 2.136.345.759 1.237-.76 2.25-1.724 2.25-2.142 0-1.205-.557-.909-2.595 1.383M585 477c-1.333.862-1.333.973 0 1 1.324.027 1.326.141.013.971-1.176.743-1.03.906.699.776 1.572-.119 1.908-.5 1.195-1.359-.674-.812-.578-1.359.301-1.712.711-.285.842-.547.292-.582-.55-.035-1.675.373-2.5.906m96.813-.317c.721.289 1.584.253 1.916-.079.332-.332-.258-.568-1.312-.525-1.165.048-1.402.285-.604.604M331 478c-1.828 1.181-.249 1.181 2.5 0 1.319-.567 1.489-.878.5-.914-.825-.031-2.175.381-3 .914m258.51.016c.346.559 1.047.758 1.559.441 1.387-.857 1.129-1.457-.628-1.457-.857 0-1.276.457-.931 1.016m-263.481.945c-.809.512-1.258 1.143-.998 1.403.259.26 1.345-.166 2.412-.946 2.133-1.56.94-1.946-1.414-.457m220.952.562c-1.057 1.273-.995 1.42.378.893.902-.347 1.641-1.032 1.641-1.523 0-1.286-.579-1.105-2.019.63M688 479c-.901.582-1.025.975-.309.985.655.008 1.469-.435 1.809-.985.767-1.242.421-1.242-1.5 0m-538.5 1c-1.759.756-1.662.868.809.93 1.632.041 2.55-.349 2.191-.93-.34-.55-.704-.968-.809-.93-.105.039-1.091.457-2.191.93m392.5 0c0 .55.477 1 1.059 1s.781-.45.441-1-.816-1-1.059-1-.441.45-.441 1m9 0c-.901.582-1.025.975-.309.985.655.008 1.469-.435 1.809-.985.767-1.242.421-1.242-1.5 0m-394.435.895c-.305.493.096 1.145.89 1.449.963.37 1.258.072.887-.895-.645-1.68-1.011-1.794-1.777-.554m158.06 2.308c.408.66-.905.814-3.748.441-3.146-.412-3.674-.33-1.877.292l2.5.865-2.5.215c-1.375.119-1.825.397-1 .617.825.221 3.525-.194 6-.922 3.797-1.116 4.148-1.417 2.249-1.924-1.4-.373-2.014-.216-1.624.416M575 483c-.901.582-1.025.975-.309.985.655.008 1.469-.435 1.809-.985.767-1.242.421-1.242-1.5 0m122.02.476c-1.117 1.346-1.045 1.471.503.877 1.128-.433 1.567-.307 1.17.336-.401.648.679.924 2.922.746 3.385-.269 3.477-.195 1.906 1.542-1.61 1.779-.595 3.805 1.315 2.624 2.124-1.312.48-5.101-2.235-5.148-1.503-.026-3.08-.61-3.505-1.298-.596-.964-1.071-.891-2.076.321M534 485c0 .55.477 1 1.059 1s.781-.45.441-1-.816-1-1.059-1-.441.45-.441 1m35.507-.011c-.35.566.051.734.941.393 1.732-.665 2.049-1.382.611-1.382-.518 0-1.216.445-1.552.989m-36.751 2.675c.691.279.959.988.596 1.576-.394.637-.188.777.51.345 1.377-.85.55-2.62-1.171-2.506-.852.056-.834.223.065.585m-3.881.777c-.069.307-.182 1.122-.253 1.809-.07.688-.882 1.256-1.804 1.263-2.378.018-3.112 1.039-.868 1.208 2.307.174 5.656-3.229 4.115-4.181-.586-.362-1.121-.406-1.19-.099M294 491c-.825.533-1.05.969-.5.969s1.675-.436 2.5-.969c.825-.533 1.05-.969.5-.969s-1.675.436-2.5.969m417.49.016c-.346.559-.996.789-1.446.511-1.871-1.156-3.099 2.185-1.306 3.557.969.743 1.42.948 1.003.457-.418-.491.223-1.939 1.424-3.217 1.201-1.278 1.907-2.324 1.568-2.324-.338 0-.898.457-1.243 1.016M183 492c0 .55.45 1 1 1s1-.45 1-1-.45-1-1-1-1 .45-1 1m94.75-.311c-2.008.525-2.368 2.262-.5 2.411.688.055.125.483-1.25.951l-2.5.852 2.5-.201c1.375-.111 2.5-.781 2.5-1.488 0-.708.675-1.714 1.5-2.235 1.552-.981.778-1.081-2.25-.29M148.125 494.5c1.444 1.65 2.871 3.675 3.171 4.5.47 1.292.557 1.283.625-.063.043-.86-1.384-2.885-3.171-4.5l-3.25-2.937 2.625 3m563.949-1.089c-.902 1.087-.873 1.583.127 2.16.715.412.965.381.558-.069-.408-.45-.24-1.422.372-2.16.613-.738.889-1.342.614-1.342s-1.027.635-1.671 1.411M201 494c.825.533 2.175.945 3 .914.989-.036.819-.347-.5-.914-2.749-1.181-4.328-1.181-2.5 0m321.539.872c.244.244-.067 1.059-.69 1.81-1.842 2.22-.532 2.102 1.825-.164 2.016-1.938 2.038-2.089.298-2.089-1.032 0-1.677.199-1.433.443M206.5 496c.34.55.816 1 1.059 1s.441-.45.441-1-.477-1-1.059-1-.781.45-.441 1m311.007.989c-.35.566.051.734.941.393 1.732-.665 2.049-1.382.611-1.382-.518 0-1.216.445-1.552.989m202.333 2.337c-1.545 1.176-1.544 1.414.012 3.477 1.665 2.208 1.67 2.204 1.73-1.294.033-1.93.028-3.495-.011-3.477-.039.017-.818.6-1.731 1.294m-202.629 1.275c-.71.769-.849 1.399-.309 1.399 1.038 0 2.541-1.902 1.948-2.466-.192-.183-.93.297-1.639 1.067m198.122-.145c0 .801.383 1.22.85.931.467-.289.591-.944.274-1.456-.808-1.308-1.124-1.161-1.124.525m-559.887 1.631c-.369.598-.144 1.611.5 2.25.895.887.996.689.426-.837-.69-1.848-.6-1.886 1.191-.5 1.792 1.388 1.835 1.369.565-.25-1.611-2.054-1.794-2.099-2.682-.663m355.887 1.369c0 .801.383 1.22.85.931.467-.289.591-.944.274-1.456-.808-1.308-1.124-1.161-1.124.525M539 504c0 .55.505 1 1.122 1 .735 0 .649.605-.25 1.75-1.233 1.573-1.201 1.616.319.427.929-.728 1.444-1.965 1.143-2.75-.624-1.625-2.334-1.938-2.334-.427m-37.515 7.025c-.349.563-.038.901.691.75.728-.151 1.237.213 1.13.808-.107.596.457 1.084 1.254 1.084 1.188 0 1.15-.33-.211-1.834-1.932-2.135-2.028-2.162-2.864-.808m-337.088 1.141c-.248.401.522.542 1.712.313 2.967-.571 3.611-1.409.928-1.207-1.204.091-2.392.493-2.64.894m6.003 2.334c0 1.594.442 2.114 1.464 1.722.944-.362 1.207-.147.741.608-.998 1.614-.101 1.473 1.29-.204.891-1.073.633-1.705-1.178-2.892-2.19-1.435-2.317-1.392-2.317.766m326.143-1.569c-.317.512-.193 1.167.274 1.456.467.289.85-.13.85-.931 0-1.686-.316-1.833-1.124-.525m229.536 1.652c.048 1.165.285 1.402.604.605.289-.722.253-1.585-.079-1.917-.332-.332-.568.258-.525 1.312M493 515c-.901.582-1.025.975-.309.985.655.008 1.469-.435 1.809-.985.767-1.242.421-1.242-1.5 0m-317.542 2.067c-.494.801-.357.988.387.528 1.533-.947 1.476.63-.088 2.455-.683.797-.365.666.707-.293 1.412-1.262 1.648-2.045.856-2.837-.792-.792-1.306-.752-1.862.147m491.292-.405c.688.278 1.813.278 2.5 0 .688-.277.125-.504-1.25-.504s-1.937.227-1.25.504m-13 1c.688.278 1.813.278 2.5 0 .688-.277.125-.504-1.25-.504s-1.937.227-1.25.504m-165.478.943c.391.391.152 1.427-.531 2.303-1.118 1.435-1.043 1.447.759.125 1.1-.807 2.132-1.539 2.293-1.626.161-.088-.5-.464-1.469-.836-.97-.372-1.443-.357-1.052.034M494 520c-.825.533-1.05.969-.5.969s1.675-.436 2.5-.969c.825-.533 1.05-.969.5-.969s-1.675.436-2.5.969m149.813-.317c.721.289 1.584.253 1.916-.079.332-.332-.258-.568-1.312-.525-1.165.048-1.402.285-.604.604m36 1c.721.289 1.584.253 1.916-.079.332-.332-.258-.568-1.312-.525-1.165.048-1.402.285-.604.604m-496.08 1.441c.679.684 1.486.991 1.793.683.308-.308-.247-.867-1.233-1.243-1.425-.542-1.54-.428-.56.56m327.267.269c0 .216.698.661 1.552.989.89.341 1.291.173.941-.393-.587-.951-2.493-1.406-2.493-.596m118 2.107c-1.375.786-2.024 1.445-1.441 1.465.582.019 1.932-.626 3-1.433 2.469-1.868 1.68-1.884-1.559-.032m-441.447.415c-.322.521-.08 1.259.537 1.641.797.492.732.936-.223 1.526-.855.528-.254.714 1.643.509 3.702-.402 5.685.284 4.83 1.668-.404.653-.161.748.642.252 1.729-1.069-2.754-4.536-4.834-3.737-.912.349-1.216.145-.796-.535.374-.605.254-1.364-.267-1.686a1.116 1.116 0 0 0-1.532.362m318.527 4.335c-1.271 2.04-1.251 2.126.216.914.889-.735 2.081-1.049 2.649-.698.616.38.792.012.437-.914-.816-2.126-1.654-1.949-3.302.698m-33.157-1c-.539 1.764-.633 3.793-.152 3.313.729-.73 1.239-3.563.641-3.563-.227 0-.446.112-.489.25m2.68.583c-.283.459.12.834.897.834s1.18-.375.897-.834c-.283-.458-.687-.833-.897-.833-.21 0-.614.375-.897.833m239.781 1.579c.59 4.016 5.409 6.947 8.13 4.945 1.868-1.375 1.802-1.429-1.119-.92-2.301.4-3.572.025-4.905-1.448-1.955-2.161-.739-2.777 1.457-.739 1.065.988 1.199.989.644.005-1.156-2.048-4.449-3.49-4.207-1.843M199 531.911c1.375 1.124 2.95 2.048 3.5 2.051 1.07.008-.738-1.377-4-3.063-1.328-.686-1.161-.347.5 1.012m299.543-.98c-.317.512-.193 1.167.274 1.456.467.289.85-.13.85-.931 0-1.686-.316-1.833-1.124-.525M468 531.43c0 .275.9.981 2 1.57 1.1.589 2 .845 2 .57s-.9-.981-2-1.57c-1.1-.589-2-.845-2-.57m34.243 1.082c1.456 1.589 1.95 1.679 3 .548 1.012-1.09 1.005-1.211-.037-.621-.711.403-2.061.157-3-.548-1.536-1.154-1.532-1.092.037.621m226.184-.747c-.59.404-1.379 1.635-1.752 2.735-.628 1.847-.576 1.867.671.266.744-.954 1.57-1.517 1.836-1.25.267.266.485-.191.485-1.016s-.038-1.493-.084-1.485c-.045.009-.566.346-1.156.75M466.333 534.5c0 .72.6 1.079 1.334.798.733-.282 1.333-.641 1.333-.798 0-.157-.6-.516-1.333-.798-.734-.281-1.334.078-1.334.798m143.342-.842c-.362.362-.103 1.327.576 2.144 1.052 1.268.867 1.385-1.259.794-1.871-.519-2.099-.442-.917.308.867.55 2.634.723 3.927.385l2.351-.614-2.241-.829c-1.232-.456-1.96-1.283-1.617-1.838.701-1.134.185-1.354-.82-.35m-9.308 5.126c.371.601-.122 1.557-1.096 2.124-.974.567-1.264 1.045-.643 1.062 1.925.052 3.669-2.668 2.266-3.535-.739-.457-.942-.322-.527.349m-388.634 2.34c.679.684 1.486.991 1.793.683.308-.308-.247-.867-1.233-1.243-1.425-.542-1.54-.428-.56.56M455 541c-.901.582-1.025.975-.309.985.655.008 1.469-.435 1.809-.985.767-1.242.421-1.242-1.5 0m35 0c-.825.533-1.05.969-.5.969s1.675-.436 2.5-.969c.825-.533 1.05-.969.5-.969s-1.675.436-2.5.969m-271.834 1.876c-1.054.669-.967.986.417 1.518.963.369 2.239.18 2.834-.42.781-.788.55-.889-.831-.363-1.336.509-1.696.375-1.191-.441.852-1.378.583-1.443-1.229-.294M596 543c.825.533 1.95.969 2.5.969s.325-.436-.5-.969c-.825-.533-1.95-.969-2.5-.969s-.325.436.5.969m-4.667 1.651c0 .984.337 1.038 1.334.211.733-.609 1.333-1.202 1.333-1.318 0-.116-.6-.211-1.333-.211a1.33 1.33 0 0 0-1.334 1.318m-364.79 2.28c-.905 1.463 1.499 2.428 2.794 1.123.887-.895.709-1-.751-.443-1.336.509-1.696.375-1.191-.441.398-.644.498-1.17.223-1.17s-.759.419-1.075.931m357.682 1.12c.151.659-.35 1.426-1.114 1.704-.932.338-1.128.082-.596-.78.525-.848.397-1.038-.377-.56-.644.398-.935 1.104-.648 1.569.287.465-.02 1.026-.683 1.247-.748.249-.541.657.545 1.074 1.048.402 1.506.275 1.141-.316-.794-1.285.761-1.277 2.307.011.865.721.927.671.224-.176-.638-.768-.621-1.605.048-2.411.703-.847.688-1.443-.048-1.898-.591-.365-.95-.124-.799.536M230 551c.825.533 1.95.969 2.5.969s.325-.436-.5-.969c-.825-.533-1.95-.969-2.5-.969s-.325.436.5.969m346.603.833c-.283.459.12.834.897.834s1.18-.375.897-.834c-.283-.458-.687-.833-.897-.833-.21 0-.614.375-.897.833m-145.79.85c.721.289 1.584.253 1.916-.079.332-.332-.258-.568-1.312-.525-1.165.048-1.402.285-.604.604M573 554c-.901.582-1.025.975-.309.985.655.008 1.469-.435 1.809-.985.767-1.242.421-1.242-1.5 0m-328 1c.825.533 1.95.969 2.5.969s.325-.436-.5-.969c-.825-.533-1.95-.969-2.5-.969s-.325.436.5.969m221.543-.069c-.317.512-.049 1.256.595 1.654.698.432.904.292.51-.345-.363-.588-.095-1.297.596-1.576.899-.362.917-.529.065-.585-.655-.043-1.45.34-1.766.852m102.07 2.252c.289.467.944.591 1.456.274 1.308-.808 1.161-1.124-.525-1.124-.801 0-1.22.383-.931.85M563 559c-.825.533-1.05.969-.5.969s1.675-.436 2.5-.969c.825-.533 1.05-.969.5-.969s-1.675.436-2.5.969m-153.5 2c.34.55.816 1 1.059 1s.441-.45.441-1-.477-1-1.059-1-.781.45-.441 1m145.372 2.75c-1.269 1.619-1.222 1.64.628.283 1.1-.807 2.188-1.594 2.417-1.75.229-.156-.054-.283-.628-.283s-1.662.788-2.417 1.75m-159.059-.067c.721.289 1.584.253 1.916-.079.332-.332-.258-.568-1.312-.525-1.165.048-1.402.285-.604.604m-2.08 2.441c.679.684 1.486.991 1.793.683.308-.308-.247-.867-1.233-1.243-1.425-.542-1.54-.428-.56.56m-23.92 2.559c.721.289 1.584.253 1.916-.079.332-.332-.258-.568-1.312-.525-1.165.048-1.402.285-.604.604m-15 2c.721.289 1.584.253 1.916-.079.332-.332-.258-.568-1.312-.525-1.165.048-1.402.285-.604.604m-30.063 1.06c3.988.189 10.512.189 14.5 0 3.988-.19.725-.346-7.25-.346s-11.238.156-7.25.346m105.063-.06c.721.289 1.584.253 1.916-.079.332-.332-.258-.568-1.312-.525-1.165.048-1.402.285-.604.604m105.187-.29c0 .216.698.661 1.552.989.89.341 1.291.173.941-.393-.587-.951-2.493-1.406-2.493-.596m-136 15.492c0 .897 3.005 2.443 3.598 1.851.171-.172-.568-.861-1.643-1.532-1.075-.672-1.955-.815-1.955-.319m70.813.798c.721.289 1.584.253 1.916-.079.332-.332-.258-.568-1.312-.525-1.165.048-1.402.285-.604.604m-9.306 1.306c-.35.566.051.734.941.393 1.732-.665 2.049-1.382.611-1.382-.518 0-1.216.445-1.552.989m.306 2.694c.721.289 1.584.253 1.916-.079.332-.332-.258-.568-1.312-.525-1.165.048-1.402.285-.604.604m-44.813.71c0 .216.698.661 1.552.989.89.341 1.291.173.941-.393-.587-.951-2.493-1.406-2.493-.596m6.75.269c.688.278 1.813.278 2.5 0 .688-.277.125-.504-1.25-.504s-1.937.227-1.25.504m32 0c.688.278 1.813.278 2.5 0 .688-.277.125-.504-1.25-.504s-1.937.227-1.25.504" fill-rule="evenodd"/><path fill="#3999c4" stroke="#3999c4" d="M170.833 266.82c-7.512 3.062-15.361 24.488-15.269 41.68.163 30.394 20.591 52.563 58.246 63.21 11.402 3.224 41.183 4.042 52.548 1.443 26.102-5.969 52.461-19.776 78.563-41.151 17.38-14.233 19.416-17.221 15.522-22.779-2.163-3.089-4.015-2.842-16.234 2.168-54.669 22.414-104.471 26.297-134.151 10.459-20.301-10.834-31.99-27.833-32.043-46.6-.02-6.953-2.8-10.216-7.182-8.43m347.949 9.291c-47.224 4.556-91.53 26.318-153.619 75.453-53.155 42.064-94.739 57.893-147.523 56.155-57.172-1.883-97.564-22.824-118.844-61.614-3.746-6.829-11.019-5.797-13.219 1.876-1.272 4.435.767 18.073 4.083 27.302 26.63 74.126 112.732 106.758 202.5 76.745 33.405-11.169 59.379-28.035 105.34-68.401 13.456-11.818 37.863-31.147 47.584-37.683 56.336-37.882 122.236-49.072 179.619-30.5 11.055 3.578 29.707 12.374 34.899 16.457 3.146 2.475 6.646 2.71 8.426.565 2.459-2.963-.367-5.763-22.528-22.326-34.434-25.735-81.546-38.387-126.718-34.029m46.497 68.864c-44.846 4.001-84.06 23.85-140.153 70.94-34.819 29.23-49.106 40.04-67.126 50.788-60.077 35.834-133.328 43.869-189.291 20.764-18.874-7.793-20.448-7.914-22.788-1.758-1.482 3.897.592 6.845 10.781 15.321 58.02 48.269 132.01 74.577 194.22 69.056 57.584-5.11 99.454-23.459 164.925-72.275 37.761-28.156 54.895-37.938 78.153-44.614 34.379-9.87 77.919-7.076 103.143 6.619 7.273 3.948 9.857 3.563 9.857-1.468 0-5.673-21.523-22.683-37.664-29.767-23.661-10.384-43.101-11.977-86.081-7.053-15.075 1.727-20.834 1.171-31.255-3.016-3.575-1.437-7.937-2.714-9.694-2.839-5.497-.391-4.589-1.106 8.982-7.076 69.102-30.398 133.146-18.165 176.18 33.653 6.44 7.755 12.532 7.777 12.532.045 0-2.389-7.905-15.891-14.516-24.795-38.77-52.215-96.239-78.231-160.205-72.525m58.33 126.087c-29.649 3.441-55.021 15.583-93.978 44.974-19.065 14.383-19.701 14.844-32.131 23.275-31.605 21.435-63.177 35.684-86 38.814-10.032 1.375-11.5 2.073-11.5 5.462 0 4.265 2.887 4.822 27.156 5.237 58.875 1.006 106.531-11.761 157.844-42.288 36.099-21.476 54.278-28.61 77.708-30.495 20.433-1.644 42.56 3.825 54.013 13.351 12.323 10.248 16.203-1.099 5.877-17.187-20.29-31.614-55.388-46.202-98.989-41.143" fill-rule="evenodd"/><path fill="#1f6689" stroke="#1f6689" d="M167.476 270.196c-1.535 1.817-3.816 5.614-5.069 8.437-18.737 42.216 2.145 79.498 52.093 93.003 13.81 3.734 39.999 4.007 53.839.56 20.346-5.066 38.011-13.048 56.44-25.503 13.264-8.963 24.316-17.73 23.67-18.776-.265-.428.045-1.104.689-1.502.801-.495.903-.28.325.68-.72 1.194-.594 1.2.834.042.925-.75 1.391-1.832 1.037-2.405-.353-.572-.17-.749.407-.392.578.357 2.11-.283 3.405-1.422s1.722-1.742.949-1.34c-.931.485-1.161.337-.68-.44.398-.644 1.106-.934 1.574-.645 2.835 1.753 6.107-7.507 3.729-10.555-2.406-3.085-11.978-2.786-10.062.314.367.595.18.765-.429.388-.595-.367-3.477.281-6.404 1.44-53.897 21.347-100.488 25.656-129.95 12.02-6.911-3.199-16.716-10.01-20.768-14.427-1.318-1.436-2.791-2.367-3.275-2.068-.484.299-.815.173-.736-.281.357-2.059-.219-2.693-1.204-1.324-.945 1.314-1.018 1.306-.587-.065.271-.861-1.051-4.011-2.938-7-4.258-6.747-6.361-13.622-6.38-20.867-.028-10.601-5.034-14.351-10.509-7.872m348.024 6.449c-20.002 2.301-47.162 10.782-70 21.856-19.769 9.587-48.167 27.61-46.853 29.736.386.625.192.782-.464.376-1.484-.917-6.353 2.303-5.52 3.651.358.579.169.75-.423.384-.589-.363-3.246.988-5.905 3.003-15.423 11.685-20.263 15.656-19.867 16.298.244.395-.106.718-.779.718-.672 0-6.39 3.806-12.706 8.459-21.29 15.683-37.805 25.496-54.665 32.481-5.05 2.092-8.918 4.231-8.596 4.753.323.522.1.648-.496.28-.595-.368-5.752.68-11.459 2.329-47.795 13.81-105.43 7.838-140.989-14.609-2.119-1.338-4.255-2.184-4.746-1.88-.492.304-1.219.026-1.617-.618-.491-.794-.272-.909.68-.356 2.197 1.274.934.152-6.551-5.819-3.826-3.053-7.383-5.286-7.905-4.964-.521.322-.667.132-.324-.423.802-1.298-3.691-5.565-4.8-4.559-.459.417-.58.306-.267-.248.313-.553-1.429-3.65-3.872-6.881-2.443-3.231-5.586-8.293-6.984-11.248-6.021-12.727-16.397-8.429-14.812 6.136 2.886 26.526 21.504 58.072 45.402 76.927 40.319 31.813 101.363 39.265 160.278 19.567 30.892-10.329 57.484-26.707 93.211-57.409 36.455-31.327 47.157-39.861 64.029-51.057 60.871-40.391 138.977-48.77 194.821-20.9 4.852 2.421 9.309 4.101 9.905 3.733.695-.43.79-.196.264.654-.613.993-.346 1.144 1.065.602 1.036-.397 1.576-.414 1.198-.037-1.038 1.038 4.055 4.657 5.392 3.83.714-.441.895-.284.469.406-1.274 2.061 4.521 2.72 6.01.684 1.349-1.846.912-3.949-.624-3-.474.293-1.149.068-1.5-.5-.351-.568-1.064-.769-1.585-.447-.521.322-.646 1.074-.277 1.671.41.663.203.796-.532.341-.927-.572-.932-1.07-.022-2.166.895-1.079 1.512-1.149 2.549-.289 2.575 2.138 1.37-.733-1.438-3.423-2.868-2.748-4.88-3.604-3.6-1.532.446.721.274.882-.457.43-.644-.398-.933-1.108-.643-1.578.706-1.141-4.999-5.148-6.018-4.227-.439.396-.499.197-.133-.442.767-1.341-8.721-7.584-9.907-6.519-.417.375-.453.15-.082-.499 1.299-2.267-26.014-17.433-42.855-23.794-22.793-8.61-59.233-12.846-85-9.881m51 68.598c-45.228 3.732-84.853 23.496-139.864 69.757-20.828 17.515-42.158 34.583-50.8 40.65-66.846 46.924-150.485 58.377-214.336 29.351-11.185-5.085-15.5-4.503-15.5 2.088 0 4.694 1.139 6.044 13.227 15.676 29.039 23.139 64.001 42.821 96.273 54.198 42.65 15.035 92.828 17.264 136.456 6.061 19.784-5.081 60.22-21.394 58.293-23.518-.412-.455-.202-.513.466-.129.682.392 5.285-1.788 10.5-4.973 5.107-3.12 10.527-6.322 12.046-7.116 1.519-.796 2.461-1.929 2.095-2.521-.393-.636-.196-.786.48-.368 1.341.829 18.276-10.409 17.522-11.628-.278-.451-.108-.697.38-.546 1.135.352 10.262-5.362 10.262-6.424 0-.441.642-.801 1.428-.801.785 0 2.63-1.462 4.101-3.25 1.471-1.787 2.357-2.655 1.969-1.927-.388.727 1.478-.352 4.148-2.399 2.67-2.046 4.759-4.051 4.643-4.455-.116-.403.559-.674 1.5-.601.941.072 1.587-.464 1.436-1.192-.151-.729.156-1.059.681-.734.526.325 1.25.115 1.609-.466.359-.581 2.528-2.226 4.819-3.654 2.291-1.429 4.841-3.231 5.666-4.006.825-.774 2.4-2.096 3.5-2.936 1.1-.841 1.368-1.2.595-.8-.931.484-1.16.335-.68-.442.398-.644 1.126-.921 1.619-.617.978.605 8.966-4.324 8.966-5.532 0-.41-1.013-1.466-2.25-2.346-1.796-1.278-1.863-1.47-.336-.952 1.424.483 1.705.31 1.096-.676-.549-.887-.433-1.085.352-.6.644.398.864 1.219.49 1.824-.433.701-.095.876.933.482 1.208-.464 1.453-.193.977 1.08-.554 1.479-.419 1.522 1.04.336.922-.75 1.37-1.875.995-2.5-.383-.64.02-.569.922.162 1.236 1 1.773 1.022 2.346.095.503-.813.32-.941-.565-.394-.892.551-1.068.42-.553-.414.415-.672 1.395-.977 2.177-.677 1.673.642 5.717-3.047 4.861-4.434-.342-.552.168-.668 1.213-.276 1.583.593 1.635.471.43-1.012-1.09-1.339-1.106-1.687-.079-1.687.711 0 2.088-.719 3.059-1.598.971-.879 2.244-1.302 2.829-.941 1.629 1.007 1.262 2.553-.45 1.896-1.7-.653-4.742 1.421-3.955 2.695.281.454-.287 1.329-1.261 1.945-2.337 1.477-1.039.967 6.472-2.545 6.607-3.088 7.181-4.489 3.541-8.639-.814-.928-1.216-2.114-.893-2.637.323-.522-.117-1.534-.978-2.248-1.29-1.071-1.717-1.054-2.428.097-.583.943-.832.311-.768-1.949.067-2.374.637-3.486 1.96-3.833 2.566-.671.635-2.906-3.246-3.758-1.612-.354-2.931-1.171-2.93-1.814.001-1.791-11.103-1.191-15.36.829-1.993.946-3.395 2.089-3.116 2.541.279.451-.019 1.146-.663 1.544-.731.452-.903.291-.457-.43.392-.635.388-1.155-.009-1.155-.977 0-17.801 10.279-23.396 14.294-2.475 1.776-7.65 5.439-11.5 8.14-8.982 6.301-12.586 9.618-11.81 10.874.349.565.117.691-.533.289-.65-.402-3.499 1.162-6.548 3.596-2.969 2.369-7.971 6.107-11.117 8.307-3.145 2.2-7.192 5.125-8.992 6.5-1.801 1.375-4.112 3.05-5.137 3.722-1.025.672-4.113 2.721-6.863 4.554-45.105 30.065-101.489 45.89-152.649 42.844-30.058-1.789-38.338-3.714-34.453-8.007 1.353-1.495 1.721-2.99 1.331-5.398l-.541-3.331 18.88-1.233c66.804-4.362 119.681-22.354 161.994-55.118 2.51-1.943 5.801-4.433 7.314-5.533 1.513-1.1 9.36-7.129 17.437-13.398 25.21-19.564 39.407-28.808 50.689-33.003 3.299-1.227 6.898-2.809 7.998-3.516 3.836-2.464 25.081-11.481 34.505-14.644 34.898-11.713 76.629-10.302 106.795 3.61 16.738 7.72 35.706 22.871 50.328 40.201 5.504 6.524 12.263 4.93 10.41-2.454-1.068-4.255-12.628-21.995-20.62-31.643-38.795-46.835-92.155-69.384-152.418-64.41m43.75 74.473c1.513.229 3.987.229 5.5 0s.275-.416-2.75-.416-4.263.187-2.75.416m14.019-.023c.973.254 2.323.237 3-.037.677-.274-.119-.481-1.769-.461-1.65.02-2.204.244-1.231.498M566 433c-2.06.66-2.148.816-.5.885 1.1.046 2.675-.352 3.5-.885 1.752-1.132.536-1.132-3 0m-14.971 4.961c-.809.512-1.168 1.233-.798 1.604.371.37 1.402-.055 2.293-.946 1.759-1.759.867-2.152-1.495-.658M578.257 452c.225.825 1.271 1.605 2.326 1.732 1.347.164 1.471.045.417-.4-.825-.347-1.872-1.127-2.326-1.732-.531-.707-.68-.565-.417.4m4.493.328c1.986.587 4.474.61 6.396.059 2.713-.778 2.265-.911-3.25-.962-5.631-.052-6.007.056-3.146.903m10.808-.421c-.309.498.34.671 1.441.383 2.335-.611 2.63-1.29.56-1.29-.793 0-1.693.408-2.001.907m-11.083 3.133c-.421.682.333.806 2.191.359 3.832-.92 4.194-1.399 1.06-1.399-1.435 0-2.897.468-3.251 1.04m-14.968 5.949c-.35.566.051.734.941.393 1.732-.665 2.049-1.382.611-1.382-.518 0-1.216.445-1.552.989M528.5 485c-.34.55-.141 1 .441 1s1.059-.45 1.059-1-.198-1-.441-1-.719.45-1.059 1m-13.957 5.931c-.317.512-.193 1.167.274 1.456.467.289.85-.13.85-.931 0-1.686-.316-1.833-1.124-.525m121.957 2.138c-28.639 3.937-53.761 15.26-100 45.071-41.772 26.931-72.727 38.515-110.5 41.35-8.228.618-8.405.586-5.527-.982 3.604-1.965 4.716-3.075 2.155-2.152-1.03.371-5.957 1.336-10.948 2.143-10.131 1.639-12.523 3.057-10.749 6.373 1.703 3.182 4.493 3.496 31.569 3.559 59.277.138 97.129-10.723 157.613-45.224 33.754-19.254 46.213-24.343 66.792-27.282 21.411-3.058 49.186 3.314 61.472 14.101 5.438 4.774 9.623 3.866 9.623-2.088 0-3.911-4.67-15.032-7.824-18.634-.922-1.052-2.186-2.789-2.809-3.859-.623-1.07-1.855-1.814-2.738-1.654-.883.16-4.649-1.041-8.368-2.67-17.813-7.802-47.041-11.176-69.761-8.052m-119.628 1.681c-1.243 1.586-1.208 1.621.378.378.962-.755 1.75-1.543 1.75-1.75 0-.823-.821-.294-2.128 1.372M715 504.882c0 .55.45 1.278 1 1.618.55.34 1 .168 1-.382s-.45-1.278-1-1.618c-.55-.34-1-.168-1 .382m-440.187 22.801c.721.289 1.584.253 1.916-.079.332-.332-.258-.568-1.312-.525-1.165.048-1.402.285-.604.604M401 582.969c0 .532.675.709 1.5.393.825-.317 1.5-.753 1.5-.969 0-.216-.675-.393-1.5-.393s-1.5.436-1.5.969" fill-rule="evenodd"/><path fill="#153e55" stroke="#153e55" d="M168.557 268.937c-.964 1.065-1.476 2.384-1.139 2.931.338.547.088 1.319-.556 1.717-.79.488-.912.267-.376-.68.599-1.058.42-1.035-.727.095-1.688 1.662-7.034 14.991-8.824 22-3.033 11.874-.79 27.725 5.66 40 5.673 10.796 21.372 25.693 25.78 24.462 1.568-.437 1.757-.339.72.377-2.572 1.777 15.726 9.539 30.389 12.891 11.236 2.569 36.433 2.195 48.516-.72 15.891-3.834 35.495-11.401 34.347-13.258-.38-.614-.182-.768.469-.366 1.58.977 7.412-2.208 6.562-3.583-.426-.689-.23-.83.513-.37 1.566.968 15.307-7.304 14.446-8.697-.355-.575-.202-.77.341-.435 1.678 1.037 17.351-10.45 17.292-12.671-.017-.622-.495-.333-1.062.641-.567.974-1.453 1.51-1.969 1.191-.517-.319-.939-.139-.939.4 0 .538-1.461 1.3-3.246 1.692-1.785.392-4.598 1.288-6.25 1.991-16.99 7.231-48.549 13.447-68.293 13.452-16.319.005-28.428-1.592-44.899-5.921-24.593-6.463-46.602-33.883-45.009-56.076.557-7.755 3.412-18.294 4.735-17.477 1.547.956 1.986-2.928.499-4.415-1.029-1.028-1.537-1.135-1.537-.322 0 .668.45 1.214 1 1.214s1 .454 1 1.008c0 .609-.767.53-1.935-.2-1.065-.664-1.713-1.568-1.441-2.008 1.032-1.67-2.394-.712-4.067 1.137m392.256 8.746c.721.289 1.584.253 1.916-.079.332-.332-.258-.568-1.312-.525-1.165.048-1.402.285-.604.604m31.449 7.009c.969.253 1.531.833 1.249 1.29-.283.458.475.573 1.684.257 2.097-.549 2.109-.61.251-1.337-1.07-.419-2.621-.741-3.446-.716-1.003.031-.916.198.262.506m10.471 3.432c.679.684 1.486.991 1.793.683.308-.308-.247-.867-1.233-1.243-1.425-.542-1.54-.428-.56.56m-424.169 2.169c.376.986.935 1.541 1.243 1.233.308-.307.001-1.114-.683-1.793-.988-.98-1.102-.865-.56.56M521.5 293.47c-34.139 4.772-69.228 19.72-101.007 43.03-8.895 6.524-36.225 28.155-39.015 30.88-3.175 3.099-7.376 6.659-12.478 10.57-2.475 1.898-6.117 4.823-8.093 6.5-7.216 6.125-9.078 7.496-25.859 19.042-46.686 32.122-106.085 41.082-157.548 23.765-9.058-3.048-25.854-11.427-33.728-16.827C132.3 402.563 109 375.605 109 370.199c0-.899-.597-1.184-1.641-.783-1.292.496-1.402.341-.517-.725.844-1.018.763-1.832-.327-3.273-2.216-2.928-2.043-6.077.235-4.29 1.589 1.246 1.623 1.21.367-.39-.925-1.18-1.763-1.446-2.535-.806-.801.665-1.153.386-1.153-.914 0-1.029.439-1.6.976-1.268 1.18.73-3.423-6.991-4.688-7.862-.488-.336-.849-.899-.802-1.25.764-5.71-8.232-9.136-11.379-4.333-6.413 9.787 3.459 40.828 20.249 63.669 7.505 10.211 22.726 25.428 24.683 24.677.831-.319 1.401-.082 1.27.529-.511 2.378 8.003 7.272 9.968 5.729 1.619-1.272 1.666-1.245.479.271-1.169 1.495-.504 2.133 6 5.765 4.023 2.246 8.103 3.894 9.066 3.663.964-.232 1.531-.064 1.261.373-1.187 1.92 26.467 10.2 39.988 11.973 34.527 4.527 69.515-.179 104-13.99 12.169-4.873 28.088-13.377 27.762-14.831-.135-.602.477-.787 1.414-.427 1.197.459 1.427.269.834-.691-.545-.88-.433-1.085.334-.612 1.23.761 4.742-1.237 5.105-2.903.12-.55.477-1.225.795-1.5.317-.275.217.121-.223.88-1.005 1.734-.276 1.415 6.263-2.738 4.605-2.924 5.119-3.566 4-4.999-1.115-1.427-1.076-1.481.295-.412 1.305 1.017 2.304.698 5.75-1.837 3.618-2.661 5.899-5.08 3.24-3.437-.512.317-1.173.183-1.47-.296-.296-.48.685-.825 2.181-.767 1.684.066 2.625-.37 2.47-1.144-.138-.688.087-1.197.5-1.132 2.015.319 2.372-.275 1.122-1.868-1.236-1.576-1.203-1.617.334-.414 1.872 1.466 4.228.675 3.156-1.06-.369-.597-.226-.81.319-.473 1.05.649 7.424-4.46 29.569-23.696 7.53-6.541 13.41-12.348 13.066-12.905-.344-.556-.16-.724.407-.373 1.167.721 10.555-6.07 9.887-7.152-.238-.384.202-1.568.979-2.629.776-1.062 1.411-1.484 1.411-.939s-.54 1.531-1.2 2.191c-.66.66-.875 1.2-.478 1.2 1.386 0 20.617-15.29 20.16-16.029-.253-.41.322-.683 1.279-.608.962.076 1.616-.455 1.464-1.187-.151-.729.207-1.027.796-.663.589.364 3.863-1.128 7.275-3.315 51.315-32.893 118.41-42.948 170.648-25.573A2465.63 2465.63 0 0 0 636 318.612c.825.262.02-.351-1.788-1.363s-3.001-2.126-2.651-2.477c.35-.35-.241-.407-1.313-.127-1.072.281-2.579-.105-3.349-.857-.769-.751-3.424-2.41-5.899-3.687-2.475-1.276-4.725-2.628-5-3.006-.922-1.266-17.423-7.995-24.793-10.111-16.465-4.728-49.211-6.379-69.707-3.514m105.363 6.424c1.151.729 1.151.941 0 1.358-.75.272-.118.439 1.403.371 2.466-.11 2.581-.259 1.059-1.373-.939-.687-2.184-1.243-2.766-1.235-.583.009-.446.404.304.879M189 306.378c0 .207.787.995 1.75 1.75 1.586 1.243 1.621 1.208.378-.378-1.307-1.666-2.128-2.195-2.128-1.372m7.347 7.453c.912 1.007 1.319 2.204.905 2.66-.414.457-.16.488.563.07 1.226-.708-.992-4.561-2.625-4.561-.275 0 .246.824 1.157 1.831m442.16 5.158c-.35.566.051.734.941.393 1.732-.665 2.049-1.382.611-1.382-.518 0-1.216.445-1.552.989m-289.774 5.135c.679.684 1.486.991 1.793.683.308-.308-.247-.867-1.233-1.243-1.425-.542-1.54-.428-.56.56M662 323.378c0 .207.788.995 1.75 1.75 1.586 1.243 1.621 1.208.378-.378-1.307-1.666-2.128-2.195-2.128-1.372M212 325c-.901.582-1.025.975-.309.985.655.008 1.469-.435 1.809-.985.767-1.242.421-1.242-1.5 0m190-.059c0 .518.445 1.216.989 1.552.566.35.734-.051.393-.941-.665-1.732-1.382-2.049-1.382-.611m-53.667 2.71c0 .984.337 1.038 1.334.211.733-.609 1.333-1.202 1.333-1.318 0-.116-.6-.211-1.333-.211a1.33 1.33 0 0 0-1.334 1.318m-68.52 3.032c.721.289 1.584.253 1.916-.079.332-.332-.258-.568-1.312-.525-1.165.048-1.402.285-.604.604m-32.063 2.023c1.238.238 3.262.238 4.5 0 1.238-.239.225-.434-2.25-.434s-3.488.195-2.25.434m142.793.225c-.317.512-.193 1.167.274 1.456.467.289.85-.13.85-.931 0-1.686-.316-1.833-1.124-.525m-11.671 8.819c-1.243 1.586-1.208 1.621.378.378.962-.755 1.75-1.543 1.75-1.75 0-.823-.821-.294-2.128 1.372M562 345.641c-20.345 2.492-61.357 15.355-59.343 18.613.367.594.178.762-.434.384-1.467-.907-8.297 2.434-7.526 3.681.344.556.104.676-.547.274-1.338-.828-9.307 3.344-8.593 4.499.262.423-.051 1.095-.695 1.493-.731.452-.903.291-.457-.43.886-1.435.052-1.47-2.499-.105-1.079.578-1.701 1.473-1.382 1.989.319.516-.006.725-.722.465-1.669-.607-21.38 12.754-21.064 14.278.131.63-.319.933-1 .672s-2.456.655-3.944 2.036c-1.489 1.38-2.938 2.51-3.22 2.51-1.424 0-19.486 15.334-18.996 16.126.314.508-.025.8-.754.649-.728-.151-1.2.321-1.049 1.049.152.736-.209 1.026-.813.652-1.973-1.219-5.152 2.575-3.708 4.426 1.085 1.391 1.034 1.432-.392.318-1.897-1.482-8.422 3.066-7.21 5.026.403.652.178.767-.584.296-1.503-.929-8.285 5.298-7.375 6.771.339.548.121.69-.485.316-1.968-1.217-19.24 13.604-17.909 15.367.624.827.741 1.17.26.763-.481-.408-1.591-.183-2.467.5-1.409 1.098-1.434 1.039-.22-.509.755-.962.938-1.75.405-1.75-1.324 0-4.418 3.526-3.713 4.231.313.313-.023.502-.747.419-.724-.082-1.317.3-1.317.85s.371.876.824.725c.454-.151.526.208.161.799-.462.748-1.105.706-2.124-.14-1.17-.971-1.8-.853-3.161.593-1.017 1.079-1.135 1.485-.295 1.009.947-.536 1.168-.414.68.376-.398.644-1.124.923-1.615.62-1.153-.713-9.557 5.4-9.195 6.688.151.538-.18.698-.736.354-1.248-.771-10.228 4.361-9.55 5.458.269.436-.068.743-.75.682-.681-.06-8.214 3.336-16.739 7.548-58.808 29.054-123.221 32.651-177.169 9.894-12.993-5.481-13.379-5.558-15.78-3.157-2.492 2.492-2.617 6.809-.279 9.653 3.129 3.805 18.165 15.555 19.138 14.954.523-.324 1.277-.062 1.675.582.483.781.288.901-.585.362-.757-.468-1.065-.414-.731.127 1.357 2.195 11.72 8.498 12.837 7.807.723-.447.942-.321.549.315-.85 1.376 9.991 8.588 11.504 7.653.692-.428.878-.272.468.393-1.133 1.833 3.025 3.462 5.48 2.148 1.599-.856 2.383-.829 3.25.111.859.931.855 1.078-.017.589-1.483-.831-4.497.293-3.802 1.418.289.468 1.26.57 2.158.225 1.017-.39 1.384-.224.974.439-.362.586-.001 1.318.804 1.627.804.308 1.695.183 1.98-.278.285-.461 2.212-.887 4.282-.948 6.32-.185 10.264-1.592 10.264-3.66 0-.727 1.238-2.305 2.75-3.507 2.695-2.143 3.157-2.173 23.25-1.498 36.478 1.225 65.497-3.117 96-14.363 11.089-4.089 38.353-17.763 46-23.072.825-.573 5.55-3.677 10.5-6.897 4.95-3.221 12.825-8.832 17.5-12.47 4.675-3.637 8.954-6.961 9.509-7.386.555-.425 2.605-2.123 4.555-3.773 1.95-1.65 5.077-4.125 6.95-5.5 1.873-1.375 4.998-3.896 6.945-5.603 8.709-7.633 24.678-20.597 34.981-28.397 6.175-4.675 11.752-8.972 12.393-9.55 3.414-3.072 25.933-15.775 34.396-19.402l11.771-5.045c14.949-6.412 45.23-11.936 59.112-10.785 6.072.503 7.34 1.582 7.388 6.282.024 2.307.254 2.654 1 1.5.646-1 .974-1.083.985-.25.008.688.717 1.25 1.574 1.25.857 0 1.269.47.914 1.044-.355.574-.101 1.699.563 2.5.948 1.142.941 1.456-.036 1.456-2.227 0 1.014 2.988 3.372 3.11 1.171.06.105.505-2.367.989s-5.397.63-6.5.325c-1.53-.424-1.668-.323-.581.427 1.106.763.771 1.079-1.5 1.416l-2.924.433 3 .165c1.997.11 2.566.441 1.701.99-.716.454 6.459.918 16 1.035 18.272.224 31.25 1.728 44.1 5.111 4.291 1.129 8.341 1.744 9 1.366.66-.378.853-.307.429.159-.974 1.072 13.13 7.679 14.537 6.809.605-.374.743-.16.328.51-.392.635-.315 1.155.173 1.155.487 0 4.561 2.475 9.054 5.5 8.108 5.459 9.827 6.359 8.721 4.569-.317-.512-.142-1.199.388-1.527.536-.33.793.295.579 1.407-.434 2.25 4.052 6.44 5.762 5.383.57-.353.747-.172.394.4-.801 1.296 1.717 3.524 2.836 2.509.45-.407.543-.256.206.337-.787 1.383 10.622 12.733 11.759 11.699.469-.427.575-.288.235.31-.851 1.496 2.178 5.605 3.521 4.775.636-.393.8-.208.395.447-.921 1.49 2.876 5.191 5.325 5.191 3.044 0 5.032-3.601 3.991-7.231-3.081-10.742-34.631-51.31-38.192-49.109-.585.361-.757.174-.389-.421.778-1.259-7.23-8.433-8.522-7.634-.484.299-.757.081-.606-.484.681-2.547-26.97-20.015-29.351-18.543-.732.452-.918.302-.488-.393.822-1.331-6.062-4.503-7.647-3.524-.576.356-.764.188-.416-.374 1.216-1.968-20.134-9.242-37.823-12.886-7.766-1.6-44.846-2.82-53.5-1.76m-211 17.448c-2.154 1.762-2.196 1.897-.306.973 1.207-.59 2.471-1.52 2.809-2.067.903-1.461.297-1.196-2.503 1.094m-240.601 4.161c-.396.688-.347.912.11.498.456-.414 1.765.036 2.91 1 2.079 1.751 2.079 1.75.176-.498-2.223-2.625-2.255-2.635-3.196-1m5.999 5.255c.122.834.848 2.073 1.614 2.755 1.161 1.035 1.194.977.198-.352-.656-.876-.942-1.843-.635-2.15.307-.307.118-.83-.421-1.163-.538-.332-.878.077-.756.91M127 380.893c0 .491.739 1.176 1.641 1.523 1.373.527 1.435.38.378-.893-1.44-1.735-2.019-1.916-2.019-.63m7 4.485c0 .207.787.995 1.75 1.75 1.586 1.243 1.621 1.208.378-.378-1.307-1.666-2.128-2.195-2.128-1.372m474.762 3.329c1.244.239 3.044.23 4-.02s-.062-.446-2.262-.435c-2.2.011-2.982.216-1.738.455m-5.949.976c.721.289 1.584.253 1.916-.079.332-.332-.258-.568-1.312-.525-1.165.048-1.402.285-.604.604m28.937-.021c.688.278 1.813.278 2.5 0 .688-.277.125-.504-1.25-.504s-1.937.227-1.25.504m-491.736 1.752c.648.648 1.324.648 1.972 0 .647-.647.309-.985-.986-.985s-1.633.338-.986.985m466.736-.752c.688.278 1.813.278 2.5 0 .688-.277.125-.504-1.25-.504s-1.937.227-1.25.504m-25.243 5.327c-.35.566.051.734.941.393 1.732-.665 2.049-1.382.611-1.382-.518 0-1.216.445-1.552.989M702.5 396c.34.55.816 1 1.059 1s.441-.45.441-1-.477-1-1.059-1-.781.45-.441 1M160 399c.825.533 2.175.945 3 .914.989-.036.819-.347-.5-.914-2.749-1.181-4.328-1.181-2.5 0m548.459 3.067c-.363.586-.445 1.281-.183 1.543s.743-.218 1.069-1.067c.676-1.762.1-2.072-.886-.476m-600.587 1.683c-1.243 1.586-1.208 1.621.378.378 1.666-1.307 2.195-2.128 1.372-2.128-.207 0-.995.788-1.75 1.75m162.941-.067c.721.289 1.584.253 1.916-.079.332-.332-.258-.568-1.312-.525-1.165.048-1.402.285-.604.604m-5.063.979c.688.278 1.813.278 2.5 0 .688-.277.125-.504-1.25-.504s-1.937.227-1.25.504m284.757.327c-.35.566.051.734.941.393 1.732-.665 2.049-1.382.611-1.382-.518 0-1.216.445-1.552.989m-288.694.694c.721.289 1.584.253 1.916-.079.332-.332-.258-.568-1.312-.525-1.165.048-1.402.285-.604.604m-53.544 3.01c.973.254 2.323.237 3-.037.677-.274-.119-.481-1.769-.461-1.65.02-2.204.244-1.231.498m33.544-.01c.721.289 1.584.253 1.916-.079.332-.332-.258-.568-1.312-.525-1.165.048-1.402.285-.604.604M124 423.941c0 .518.445 1.216.989 1.552.566.35.734-.051.393-.941-.665-1.732-1.382-2.049-1.382-.611m275.543 14.99c-.317.512-.193 1.167.274 1.456.467.289.85-.13.85-.931 0-1.686-.316-1.833-1.124-.525M147.872 484.75c-1.243 1.586-1.208 1.621.378.378.963-.755 1.75-1.543 1.75-1.75 0-.823-.821-.294-2.128 1.372M325 485c-.825.533-1.05.969-.5.969s1.675-.436 2.5-.969c.825-.533 1.05-.969.5-.969s-1.675.436-2.5.969m-178 2.941c0 .518.445 1.216.989 1.552.566.35.734-.051.393-.941-.665-1.732-1.382-2.049-1.382-.611m35 29.437c0 .207.787.995 1.75 1.75 1.586 1.243 1.621 1.208.378-.378-1.307-1.666-2.128-2.195-2.128-1.372m510.813.305c.721.289 1.584.253 1.916-.079.332-.332-.258-.568-1.312-.525-1.165.048-1.402.285-.604.604M611 528.393c0 .216.698.661 1.552.989.89.341 1.291.173.941-.393-.587-.951-2.493-1.406-2.493-.596m-406.457 3.538c-.317.512-.193 1.167.274 1.456.467.289.85-.13.85-.931 0-1.686-.316-1.833-1.124-.525m3.457.115c-1.095.741-.691.834 1.5.344 3.677-.823 4.475-1.395 1.917-1.375-1.054.009-2.592.472-3.417 1.031m1 3.403c0 .275 1.35 1.198 3 2.051 1.65.853 3 1.326 3 1.051 0-.275-1.35-1.198-3-2.051-1.65-.853-3-1.326-3-1.051m9.083 4.916c.23.2 1.542.9 2.917 1.555 2.357 1.122 2.389 1.102.559-.365-1.593-1.276-4.848-2.391-3.476-1.19M227 545c.825.533 1.95.969 2.5.969s.325-.436-.5-.969c-.825-.533-1.95-.969-2.5-.969s-.325.436.5.969m9.5 4c.34.55.816 1 1.059 1s.441-.45.441-1-.477-1-1.059-1-.781.45-.441 1m334.007 1.989c-.35.566.051.734.941.393 1.732-.665 2.049-1.382.611-1.382-.518 0-1.216.445-1.552.989m-290.694 12.694c.721.289 1.584.253 1.916-.079.332-.332-.258-.568-1.312-.525-1.165.048-1.402.285-.604.604m266.694 1.306c-.35.566.051.734.941.393 1.732-.665 2.049-1.382.611-1.382-.518 0-1.216.445-1.552.989m-225.757 4.734c1.788.222 4.712.222 6.5 0 1.788-.221.325-.403-3.25-.403s-5.038.182-3.25.403m16 0c1.788.222 4.712.222 6.5 0 1.788-.221.325-.403-3.25-.403s-5.038.182-3.25.403" fill-rule="evenodd"/></svg>